{
	"asset":{
		"generator":"Khronos glTF Blender I/O v4.3.47",
		"version":"2.0"
	},
	"scene":0,
	"scenes":[
		{
			"name":"Scene",
			"nodes":[
				0,
				1,
				3,
				6,
				7
			]
		}
	],
	"nodes":[
		{
			"mesh":0,
			"name":"ChestTrigger"
		},
		{
			"mesh":1,
			"name":"chestCollider"
		},
		{
			"mesh":2,
			"name":"Torus.001",
			"rotation":[
				0.01377515122294426,
				0.01378036942332983,
				0.4931657612323761,
				0.8697171211242676
			],
			"translation":[
				0,
				1.4337069988250732,
				1.1631958484649658
			]
		},
		{
			"children":[
				2
			],
			"mesh":3,
			"name":"Cube.002"
		},
		{
			"mesh":4,
			"name":"Torus.003"
		},
		{
			"children":[
				4
			],
			"mesh":5,
			"name":"Plane.001",
			"rotation":[
				0.8122262954711914,
				0,
				0,
				0.5833425521850586
			],
			"translation":[
				0,
				1.0150163173675537,
				-2.7289602756500244
			]
		},
		{
			"children":[
				5
			],
			"mesh":6,
			"name":"Cube.001"
		},
		{
			"mesh":7,
			"name":"Cube"
		}
	],
	"materials":[
		{
			"doubleSided":true,
			"name":"Material.003",
			"pbrMetallicRoughness":{
				"baseColorTexture":{
					"index":0
				},
				"metallicFactor":0,
				"roughnessFactor":0.5
			}
		},
		{
			"doubleSided":true,
			"name":"Material.004",
			"pbrMetallicRoughness":{
				"baseColorTexture":{
					"index":1
				},
				"metallicFactor":0,
				"roughnessFactor":0.5
			}
		},
		{
			"doubleSided":true,
			"name":"Material.016",
			"pbrMetallicRoughness":{
				"baseColorTexture":{
					"index":2
				},
				"roughnessFactor":0.6338582634925842
			}
		},
		{
			"doubleSided":true,
			"name":"Material.005",
			"pbrMetallicRoughness":{
				"baseColorTexture":{
					"index":3
				},
				"metallicFactor":0
			}
		}
	],
	"meshes":[
		{
			"name":"Cube.003",
			"primitives":[
				{
					"attributes":{
						"POSITION":0,
						"NORMAL":1,
						"TEXCOORD_0":2
					},
					"indices":3,
					"material":0
				}
			]
		},
		{
			"name":"Cube.004",
			"primitives":[
				{
					"attributes":{
						"POSITION":4,
						"NORMAL":5,
						"TEXCOORD_0":6
					},
					"indices":3,
					"material":1
				}
			]
		},
		{
			"name":"Torus.004",
			"primitives":[
				{
					"attributes":{
						"POSITION":7,
						"NORMAL":8,
						"TEXCOORD_0":9
					},
					"indices":10,
					"material":2
				}
			]
		},
		{
			"name":"Cube.021",
			"primitives":[
				{
					"attributes":{
						"POSITION":11,
						"NORMAL":12,
						"TEXCOORD_0":13
					},
					"indices":14,
					"material":2
				}
			]
		},
		{
			"name":"Torus.003",
			"primitives":[
				{
					"attributes":{
						"POSITION":15,
						"NORMAL":16,
						"TEXCOORD_0":17
					},
					"indices":18,
					"material":2
				}
			]
		},
		{
			"name":"Plane.002",
			"primitives":[
				{
					"attributes":{
						"POSITION":19,
						"NORMAL":20,
						"TEXCOORD_0":21
					},
					"indices":22,
					"material":2
				}
			]
		},
		{
			"name":"Cube.001",
			"primitives":[
				{
					"attributes":{
						"POSITION":23,
						"NORMAL":24,
						"TEXCOORD_0":25
					},
					"indices":26,
					"material":3
				}
			]
		},
		{
			"name":"Cube.002",
			"primitives":[
				{
					"attributes":{
						"POSITION":27,
						"NORMAL":28,
						"TEXCOORD_0":29
					},
					"indices":30,
					"material":3
				}
			]
		}
	],
	"textures":[
		{
			"sampler":0,
			"source":0
		},
		{
			"sampler":0,
			"source":0
		},
		{
			"sampler":0,
			"source":1
		},
		{
			"sampler":0,
			"source":2
		}
	],
	"images":[
		{
			"mimeType":"image/png",
			"name":"oci",
			"uri":"oci.png"
		},
		{
			"mimeType":"image/jpeg",
			"name":"KLJUCAVNICA_dirt_aerial_02_diff_1k_jpg",
			"uri":"KLJUCAVNICA_dirt_aerial_02_diff_1k_jpg.jpg"
		},
		{
			"mimeType":"image/jpeg",
			"name":"16599",
			"uri":"16599.jpg"
		}
	],
	"accessors":[
		{
			"bufferView":0,
			"componentType":5126,
			"count":24,
			"max":[
				2.597137212753296,
				16.369705200195312,
				1.5861141681671143
			],
			"min":[
				-2.597137212753296,
				-1.0943269729614258,
				-1.5861141681671143
			],
			"type":"VEC3"
		},
		{
			"bufferView":1,
			"componentType":5126,
			"count":24,
			"type":"VEC3"
		},
		{
			"bufferView":2,
			"componentType":5126,
			"count":24,
			"type":"VEC2"
		},
		{
			"bufferView":3,
			"componentType":5123,
			"count":36,
			"type":"SCALAR"
		},
		{
			"bufferView":4,
			"componentType":5126,
			"count":24,
			"max":[
				2.41269588470459,
				15.128101348876953,
				1.4734728336334229
			],
			"min":[
				-2.41269588470459,
				-1.0956840515136719,
				-1.4734728336334229
			],
			"type":"VEC3"
		},
		{
			"bufferView":5,
			"componentType":5126,
			"count":24,
			"type":"VEC3"
		},
		{
			"bufferView":6,
			"componentType":5126,
			"count":24,
			"type":"VEC2"
		},
		{
			"bufferView":7,
			"componentType":5126,
			"count":2160,
			"max":[
				0.11430090665817261,
				0.08066770434379578,
				0.10238802433013916
			],
			"min":[
				-0.11429983377456665,
				-0.08066774159669876,
				-0.10238969326019287
			],
			"type":"VEC3"
		},
		{
			"bufferView":8,
			"componentType":5126,
			"count":2160,
			"type":"VEC3"
		},
		{
			"bufferView":9,
			"componentType":5126,
			"count":2160,
			"type":"VEC2"
		},
		{
			"bufferView":10,
			"componentType":5123,
			"count":3168,
			"type":"SCALAR"
		},
		{
			"bufferView":11,
			"componentType":5126,
			"count":54,
			"max":[
				0.19216907024383545,
				1.4744296073913574,
				1.3265531063079834
			],
			"min":[
				-0.19216905534267426,
				1.080070972442627,
				1.0591599941253662
			],
			"type":"VEC3"
		},
		{
			"bufferView":12,
			"componentType":5126,
			"count":54,
			"type":"VEC3"
		},
		{
			"bufferView":13,
			"componentType":5126,
			"count":54,
			"type":"VEC2"
		},
		{
			"bufferView":14,
			"componentType":5123,
			"count":144,
			"type":"SCALAR"
		},
		{
			"bufferView":15,
			"componentType":5126,
			"count":2384,
			"max":[
				0.08924371004104614,
				3.5819883346557617,
				-1.5722898244857788
			],
			"min":[
				-0.08924371004104614,
				3.258727550506592,
				-1.7154847383499146
			],
			"type":"VEC3"
		},
		{
			"bufferView":16,
			"componentType":5126,
			"count":2384,
			"type":"VEC3"
		},
		{
			"bufferView":17,
			"componentType":5126,
			"count":2384,
			"type":"VEC2"
		},
		{
			"bufferView":18,
			"componentType":5123,
			"count":3168,
			"type":"SCALAR"
		},
		{
			"bufferView":19,
			"componentType":5126,
			"count":135,
			"max":[
				0.1849936991930008,
				3.53851580619812,
				-1.4081783294677734
			],
			"min":[
				-0.1849936991930008,
				3.2363648414611816,
				-2.1087558269500732
			],
			"type":"VEC3"
		},
		{
			"bufferView":20,
			"componentType":5126,
			"count":135,
			"type":"VEC3"
		},
		{
			"bufferView":21,
			"componentType":5126,
			"count":135,
			"type":"VEC2"
		},
		{
			"bufferView":22,
			"componentType":5123,
			"count":276,
			"type":"SCALAR"
		},
		{
			"bufferView":23,
			"componentType":5126,
			"count":960,
			"max":[
				2.2637577056884766,
				2.2442970275878906,
				1.012475848197937
			],
			"min":[
				-2.2637577056884766,
				1.489776849746704,
				-0.9896800518035889
			],
			"type":"VEC3"
		},
		{
			"bufferView":24,
			"componentType":5126,
			"count":960,
			"type":"VEC3"
		},
		{
			"bufferView":25,
			"componentType":5126,
			"count":960,
			"type":"VEC2"
		},
		{
			"bufferView":26,
			"componentType":5123,
			"count":1296,
			"type":"SCALAR"
		},
		{
			"bufferView":27,
			"componentType":5126,
			"count":214,
			"max":[
				2.2637577056884766,
				1.6019527912139893,
				1
			],
			"min":[
				-2.2637577056884766,
				0.007976651191711426,
				-1
			],
			"type":"VEC3"
		},
		{
			"bufferView":28,
			"componentType":5126,
			"count":214,
			"type":"VEC3"
		},
		{
			"bufferView":29,
			"componentType":5126,
			"count":214,
			"type":"VEC2"
		},
		{
			"bufferView":30,
			"componentType":5123,
			"count":444,
			"type":"SCALAR"
		}
	],
	"bufferViews":[
		{
			"buffer":0,
			"byteLength":288,
			"byteOffset":0,
			"target":34962
		},
		{
			"buffer":0,
			"byteLength":288,
			"byteOffset":288,
			"target":34962
		},
		{
			"buffer":0,
			"byteLength":192,
			"byteOffset":576,
			"target":34962
		},
		{
			"buffer":0,
			"byteLength":72,
			"byteOffset":768,
			"target":34963
		},
		{
			"buffer":0,
			"byteLength":288,
			"byteOffset":840,
			"target":34962
		},
		{
			"buffer":0,
			"byteLength":288,
			"byteOffset":1128,
			"target":34962
		},
		{
			"buffer":0,
			"byteLength":192,
			"byteOffset":1416,
			"target":34962
		},
		{
			"buffer":0,
			"byteLength":25920,
			"byteOffset":1608,
			"target":34962
		},
		{
			"buffer":0,
			"byteLength":25920,
			"byteOffset":27528,
			"target":34962
		},
		{
			"buffer":0,
			"byteLength":17280,
			"byteOffset":53448,
			"target":34962
		},
		{
			"buffer":0,
			"byteLength":6336,
			"byteOffset":70728,
			"target":34963
		},
		{
			"buffer":0,
			"byteLength":648,
			"byteOffset":77064,
			"target":34962
		},
		{
			"buffer":0,
			"byteLength":648,
			"byteOffset":77712,
			"target":34962
		},
		{
			"buffer":0,
			"byteLength":432,
			"byteOffset":78360,
			"target":34962
		},
		{
			"buffer":0,
			"byteLength":288,
			"byteOffset":78792,
			"target":34963
		},
		{
			"buffer":0,
			"byteLength":28608,
			"byteOffset":79080,
			"target":34962
		},
		{
			"buffer":0,
			"byteLength":28608,
			"byteOffset":107688,
			"target":34962
		},
		{
			"buffer":0,
			"byteLength":19072,
			"byteOffset":136296,
			"target":34962
		},
		{
			"buffer":0,
			"byteLength":6336,
			"byteOffset":155368,
			"target":34963
		},
		{
			"buffer":0,
			"byteLength":1620,
			"byteOffset":161704,
			"target":34962
		},
		{
			"buffer":0,
			"byteLength":1620,
			"byteOffset":163324,
			"target":34962
		},
		{
			"buffer":0,
			"byteLength":1080,
			"byteOffset":164944,
			"target":34962
		},
		{
			"buffer":0,
			"byteLength":552,
			"byteOffset":166024,
			"target":34963
		},
		{
			"buffer":0,
			"byteLength":11520,
			"byteOffset":166576,
			"target":34962
		},
		{
			"buffer":0,
			"byteLength":11520,
			"byteOffset":178096,
			"target":34962
		},
		{
			"buffer":0,
			"byteLength":7680,
			"byteOffset":189616,
			"target":34962
		},
		{
			"buffer":0,
			"byteLength":2592,
			"byteOffset":197296,
			"target":34963
		},
		{
			"buffer":0,
			"byteLength":2568,
			"byteOffset":199888,
			"target":34962
		},
		{
			"buffer":0,
			"byteLength":2568,
			"byteOffset":202456,
			"target":34962
		},
		{
			"buffer":0,
			"byteLength":1712,
			"byteOffset":205024,
			"target":34962
		},
		{
			"buffer":0,
			"byteLength":888,
			"byteOffset":206736,
			"target":34963
		}
	],
	"samplers":[
		{
			"magFilter":9729,
			"minFilter":9987
		}
	],
	"buffers":[
		{
			"byteLength":207624,
			"uri":"chest%2Btrigger.bin"
		}
	]
}
