{
	"asset":{
		"generator":"Khronos glTF Blender I/O v4.2.60",
		"version":"2.0"
	},
	"scene":0,
	"scenes":[
		{
			"name":"Scene",
			"nodes":[
				1
			]
		}
	],
	"nodes":[
		{
			"mesh":0,
			"name":"Plane",
			"rotation":[
				0.7071068286895752,
				0,
				0,
				0.7071068286895752
			],
			"scale":[
				0.35908371210098267,
				2.611631393432617,
				7.992310523986816
			],
			"translation":[
				0,
				7.560334205627441,
				0
			]
		},
		{
			"children":[
				0
			],
			"mesh":1,
			"name":"Cube.006",
			"scale":[
				0.47890856862068176,
				0.14854344725608826,
				0.14854344725608826
			]
		}
	],
	"materials":[
		{
			"doubleSided":true,
			"name":"Material.001",
			"pbrMetallicRoughness":{
				"baseColorTexture":{
					"index":0
				},
				"roughnessFactor":0.2545454502105713
			}
		},
		{
			"doubleSided":true,
			"name":"Material.002",
			"pbrMetallicRoughness":{
				"baseColorTexture":{
					"index":1
				},
				"metallicFactor":0
			}
		}
	],
	"meshes":[
		{
			"name":"Plane.001",
			"primitives":[
				{
					"attributes":{
						"POSITION":0,
						"NORMAL":1,
						"TEXCOORD_0":2
					},
					"indices":3,
					"material":0
				}
			]
		},
		{
			"name":"Cube.003",
			"primitives":[
				{
					"attributes":{
						"POSITION":4,
						"NORMAL":5,
						"TEXCOORD_0":6
					},
					"indices":7,
					"material":1
				}
			]
		}
	],
	"textures":[
		{
			"sampler":0,
			"source":0
		},
		{
			"sampler":0,
			"source":1
		}
	],
	"images":[
		{
			"mimeType":"image/png",
			"name":"cool_sword",
			"uri":"cool_sword.png"
		},
		{
			"mimeType":"image/png",
			"name":"cool_sword_rocaj",
			"uri":"cool_sword_rocaj.png"
		}
	],
	"accessors":[
		{
			"bufferView":0,
			"componentType":5126,
			"count":674,
			"max":[
				2.3182871341705322,
				0.2979016602039337,
				0.8867738246917725
			],
			"min":[
				-2.312134265899658,
				-0.2971380650997162,
				-1.5244250297546387
			],
			"type":"VEC3"
		},
		{
			"bufferView":1,
			"componentType":5126,
			"count":674,
			"type":"VEC3"
		},
		{
			"bufferView":2,
			"componentType":5126,
			"count":674,
			"type":"VEC2"
		},
		{
			"bufferView":3,
			"componentType":5123,
			"count":744,
			"type":"SCALAR"
		},
		{
			"bufferView":4,
			"componentType":5126,
			"count":248,
			"max":[
				0.9584236145019531,
				1.7034718990325928,
				1.115509033203125
			],
			"min":[
				-0.9584236145019531,
				-5.0652875900268555,
				-1.115509033203125
			],
			"type":"VEC3"
		},
		{
			"bufferView":5,
			"componentType":5126,
			"count":248,
			"type":"VEC3"
		},
		{
			"bufferView":6,
			"componentType":5126,
			"count":248,
			"type":"VEC2"
		},
		{
			"bufferView":7,
			"componentType":5123,
			"count":300,
			"type":"SCALAR"
		}
	],
	"bufferViews":[
		{
			"buffer":0,
			"byteLength":8088,
			"byteOffset":0,
			"target":34962
		},
		{
			"buffer":0,
			"byteLength":8088,
			"byteOffset":8088,
			"target":34962
		},
		{
			"buffer":0,
			"byteLength":5392,
			"byteOffset":16176,
			"target":34962
		},
		{
			"buffer":0,
			"byteLength":1488,
			"byteOffset":21568,
			"target":34963
		},
		{
			"buffer":0,
			"byteLength":2976,
			"byteOffset":23056,
			"target":34962
		},
		{
			"buffer":0,
			"byteLength":2976,
			"byteOffset":26032,
			"target":34962
		},
		{
			"buffer":0,
			"byteLength":1984,
			"byteOffset":29008,
			"target":34962
		},
		{
			"buffer":0,
			"byteLength":600,
			"byteOffset":30992,
			"target":34963
		}
	],
	"samplers":[
		{
			"magFilter":9729,
			"minFilter":9987
		}
	],
	"buffers":[
		{
			"byteLength":31592,
			"uri":"cool_sword.bin"
		}
	]
}
