{
	"asset":{
		"generator":"Khronos glTF Blender I/O v4.2.60",
		"version":"2.0"
	},
	"extensionsUsed":[
		"KHR_materials_specular"
	],
	"scene":0,
	"scenes":[
		{
			"name":"Scene",
			"nodes":[
				11
			]
		}
	],
	"nodes":[
		{
			"mesh":0,
			"name":"Cube.001"
		},
		{
			"mesh":1,
			"name":"Cube.002"
		},
		{
			"mesh":2,
			"name":"Cube.003"
		},
		{
			"mesh":3,
			"name":"Cube.006"
		},
		{
			"mesh":4,
			"name":"Cube.007"
		},
		{
			"mesh":5,
			"name":"Cube.005"
		},
		{
			"children":[
				5
			],
			"mesh":6,
			"name":"Cylinder"
		},
		{
			"mesh":7,
			"name":"kiklca"
		},
		{
			"mesh":8,
			"name":"pas"
		},
		{
			"mesh":9,
			"name":"Sphere"
		},
		{
			"mesh":10,
			"name":"Torus.001"
		},
		{
			"children":[
				0,
				1,
				2,
				3,
				4,
				6,
				7,
				8,
				9,
				10
			],
			"mesh":11,
			"name":"Minotaur",
			"translation" : [
                0,
                6.729737281799316,
                0
            ]
		}
	],
	"animations":[
		{
			"channels":[
				{
					"sampler":0,
					"target":{
						"node":11,
						"path":"rotation"
					}
				}
			],
			"name":"CubeAction.001",
			"samplers":[
				{
					"input":48,
					"interpolation":"LINEAR",
					"output":49
				}
			]
		}
	],
	"materials":[
		{
			"doubleSided":true,
			"name":"Material.006",
			"pbrMetallicRoughness":{
				"baseColorTexture":{
					"index":0
				},
				"metallicFactor":0
			}
		},
		{
			"doubleSided":true,
			"name":"Material.005",
			"pbrMetallicRoughness":{
				"baseColorTexture":{
					"index":1
				},
				"roughnessFactor":0.4921259880065918
			}
		},
		{
			"doubleSided":true,
			"extensions":{
				"KHR_materials_specular":{
					"specularFactor":0
				}
			},
			"name":"Material",
			"pbrMetallicRoughness":{
				"baseColorTexture":{
					"index":2
				},
				"metallicRoughnessTexture":{
					"index":3
				},
				"roughnessFactor":0.34090909361839294
			}
		},
		{
			"doubleSided":true,
			"name":"Material.003",
			"pbrMetallicRoughness":{
				"baseColorTexture":{
					"index":4
				},
				"metallicFactor":0
			}
		},
		{
			"doubleSided":true,
			"emissiveFactor":[
				0.11122042978685798,
				0.0021355804904532594,
				0.014181790691883966
			],
			"name":"Material.002",
			"pbrMetallicRoughness":{
				"baseColorTexture":{
					"index":5
				},
				"metallicFactor":0,
				"roughnessFactor":0
			}
		},
		{
			"doubleSided":true,
			"name":"Material.001",
			"pbrMetallicRoughness":{
				"baseColorTexture":{
					"index":6
				},
				"metallicFactor":0,
				"roughnessFactor":0.9803149700164795
			}
		}
	],
	"meshes":[
		{
			"name":"Cube.003",
			"primitives":[
				{
					"attributes":{
						"POSITION":0,
						"NORMAL":1,
						"TEXCOORD_0":2
					},
					"indices":3,
					"material":0
				}
			]
		},
		{
			"name":"Cube.006",
			"primitives":[
				{
					"attributes":{
						"POSITION":4,
						"NORMAL":5,
						"TEXCOORD_0":6
					},
					"indices":7,
					"material":1
				}
			]
		},
		{
			"name":"Cube.004",
			"primitives":[
				{
					"attributes":{
						"POSITION":8,
						"NORMAL":9,
						"TEXCOORD_0":10
					},
					"indices":11,
					"material":2
				}
			]
		},
		{
			"name":"Cube.008",
			"primitives":[
				{
					"attributes":{
						"POSITION":12,
						"NORMAL":13,
						"TEXCOORD_0":14
					},
					"indices":15,
					"material":1
				}
			]
		},
		{
			"name":"Cube.009",
			"primitives":[
				{
					"attributes":{
						"POSITION":16,
						"NORMAL":17,
						"TEXCOORD_0":18
					},
					"indices":19,
					"material":2
				}
			]
		},
		{
			"name":"Cube",
			"primitives":[
				{
					"attributes":{
						"POSITION":20,
						"NORMAL":21,
						"TEXCOORD_0":22
					},
					"indices":23,
					"material":2
				}
			]
		},
		{
			"name":"Cylinder",
			"primitives":[
				{
					"attributes":{
						"POSITION":24,
						"NORMAL":25,
						"TEXCOORD_0":26
					},
					"indices":27,
					"material":0
				}
			]
		},
		{
			"name":"Cube.002",
			"primitives":[
				{
					"attributes":{
						"POSITION":28,
						"NORMAL":29,
						"TEXCOORD_0":30
					},
					"indices":31,
					"material":3
				}
			]
		},
		{
			"name":"Cube.005",
			"primitives":[
				{
					"attributes":{
						"POSITION":32,
						"NORMAL":33,
						"TEXCOORD_0":34
					},
					"indices":35,
					"material":1
				}
			]
		},
		{
			"name":"Sphere.001",
			"primitives":[
				{
					"attributes":{
						"POSITION":36,
						"NORMAL":37,
						"TEXCOORD_0":38
					},
					"indices":39,
					"material":4
				}
			]
		},
		{
			"name":"Torus.001",
			"primitives":[
				{
					"attributes":{
						"POSITION":40,
						"NORMAL":41,
						"TEXCOORD_0":42
					},
					"indices":43,
					"material":1
				}
			]
		},
		{
			"name":"Cube.001",
			"primitives":[
				{
					"attributes":{
						"POSITION":44,
						"NORMAL":45,
						"TEXCOORD_0":46
					},
					"indices":47,
					"material":5
				}
			]
		}
	],
	"textures":[
		{
			"sampler":0,
			"source":0
		},
		{
			"sampler":0,
			"source":0
		},
		{
			"sampler":0,
			"source":1
		},
		{
			"sampler":0,
			"source":2
		},
		{
			"sampler":0,
			"source":3
		},
		{
			"sampler":0,
			"source":4
		},
		{
			"sampler":0,
			"source":0
		}
	],
	"images":[
		{
			"mimeType":"image/jpeg",
			"name":"dirt_aerial_02_diff_1k",
			"uri":"dirt_aerial_02_diff_1k.jpg"
		},
		{
			"mimeType":"image/jpeg",
			"name":"dirt_aerial_02_diff_1k_blood",
			"uri":"dirt_aerial_02_diff_1k_blood.jpg"
		},
		{
			"mimeType":"image/jpeg",
			"name":"dirt_aerial_02_diff_1k_blood",
			"uri":"dirt_aerial_02_diff_1k_blood.jpg"
		},
		{
			"mimeType":"image/jpeg",
			"name":"dirty_carpet_diff_2k",
			"uri":"dirty_carpet_diff_2k.jpg"
		},
		{
			"mimeType":"image/png",
			"name":"oci",
			"uri":"oci.png"
		}
	],
	"accessors":[
		{
			"bufferView":0,
			"componentType":5126,
			"count":26,
			"max":[
				1.5649471282958984,
				0.702946662902832,
				0.529005765914917
			],
			"min":[
				-1.5649471282958984,
				0.002464771270751953,
				-0.9054005146026611
			],
			"type":"VEC3"
		},
		{
			"bufferView":1,
			"componentType":5126,
			"count":26,
			"type":"VEC3"
		},
		{
			"bufferView":2,
			"componentType":5126,
			"count":26,
			"type":"VEC2"
		},
		{
			"bufferView":3,
			"componentType":5123,
			"count":78,
			"type":"SCALAR"
		},
		{
			"bufferView":4,
			"componentType":5126,
			"count":40,
			"max":[
				2.9544146060943604,
				6.702750205993652,
				1.6984491348266602
			],
			"min":[
				2.0497286319732666,
				5.748565196990967,
				1.0873050689697266
			],
			"type":"VEC3"
		},
		{
			"bufferView":5,
			"componentType":5126,
			"count":40,
			"type":"VEC3"
		},
		{
			"bufferView":6,
			"componentType":5126,
			"count":40,
			"type":"VEC2"
		},
		{
			"bufferView":7,
			"componentType":5123,
			"count":240,
			"type":"SCALAR"
		},
		{
			"bufferView":8,
			"componentType":5126,
			"count":375,
			"max":[
				2.4693050384521484,
				9.702385902404785,
				2.7866241931915283
			],
			"min":[
				0.4672360420227051,
				9.163796424865723,
				0.5222198963165283
			],
			"type":"VEC3"
		},
		{
			"bufferView":9,
			"componentType":5126,
			"count":375,
			"type":"VEC3"
		},
		{
			"bufferView":10,
			"componentType":5126,
			"count":375,
			"type":"VEC2"
		},
		{
			"bufferView":11,
			"componentType":5123,
			"count":375,
			"type":"SCALAR"
		},
		{
			"bufferView":12,
			"componentType":5126,
			"count":40,
			"max":[
				-1.6337835788726807,
				5.710554122924805,
				1.9438053369522095
			],
			"min":[
				-2.538789749145508,
				4.815646171569824,
				1.1648122072219849
			],
			"type":"VEC3"
		},
		{
			"bufferView":13,
			"componentType":5126,
			"count":40,
			"type":"VEC3"
		},
		{
			"bufferView":14,
			"componentType":5126,
			"count":40,
			"type":"VEC2"
		},
		{
			"bufferView":15,
			"componentType":5123,
			"count":240,
			"type":"SCALAR"
		},
		{
			"bufferView":16,
			"componentType":5126,
			"count":375,
			"max":[
				-0.4523201584815979,
				9.688447952270508,
				2.9286563396453857
			],
			"min":[
				-2.422377586364746,
				9.151814460754395,
				0.5395426750183105
			],
			"type":"VEC3"
		},
		{
			"bufferView":17,
			"componentType":5126,
			"count":375,
			"type":"VEC3"
		},
		{
			"bufferView":18,
			"componentType":5126,
			"count":375,
			"type":"VEC2"
		},
		{
			"bufferView":19,
			"componentType":5123,
			"count":375,
			"type":"SCALAR"
		},
		{
			"bufferView":20,
			"componentType":5126,
			"count":198,
			"max":[
				5.2022552490234375,
				9.293899536132812,
				3.5766186714172363
			],
			"min":[
				3.2537150382995605,
				6.300192356109619,
				0.6681971549987793
			],
			"type":"VEC3"
		},
		{
			"bufferView":21,
			"componentType":5126,
			"count":198,
			"type":"VEC3"
		},
		{
			"bufferView":22,
			"componentType":5126,
			"count":198,
			"type":"VEC2"
		},
		{
			"bufferView":23,
			"componentType":5123,
			"count":348,
			"type":"SCALAR"
		},
		{
			"bufferView":24,
			"componentType":5126,
			"count":260,
			"max":[
				4.884738922119141,
				8.212051391601562,
				2.2777020931243896
			],
			"min":[
				-3.4988203048706055,
				4.167190074920654,
				1.9712189435958862
			],
			"type":"VEC3"
		},
		{
			"bufferView":25,
			"componentType":5126,
			"count":260,
			"type":"VEC3"
		},
		{
			"bufferView":26,
			"componentType":5126,
			"count":260,
			"type":"VEC2"
		},
		{
			"bufferView":27,
			"componentType":5123,
			"count":372,
			"type":"SCALAR"
		},
		{
			"bufferView":28,
			"componentType":5126,
			"count":528,
			"max":[
				1.1130517721176147,
				4.862984657287598,
				1.0200227499008179
			],
			"min":[
				-1.1130517721176147,
				2.613612174987793,
				-0.737720251083374
			],
			"type":"VEC3"
		},
		{
			"bufferView":29,
			"componentType":5126,
			"count":528,
			"type":"VEC3"
		},
		{
			"bufferView":30,
			"componentType":5126,
			"count":528,
			"type":"VEC2"
		},
		{
			"bufferView":31,
			"componentType":5123,
			"count":528,
			"type":"SCALAR"
		},
		{
			"bufferView":32,
			"componentType":5126,
			"count":56,
			"max":[
				1.1176507472991943,
				4.870865345001221,
				1.0257443189620972
			],
			"min":[
				-1.1176507472991943,
				3.953129529953003,
				-0.8004132509231567
			],
			"type":"VEC3"
		},
		{
			"bufferView":33,
			"componentType":5126,
			"count":56,
			"type":"VEC3"
		},
		{
			"bufferView":34,
			"componentType":5126,
			"count":56,
			"type":"VEC2"
		},
		{
			"bufferView":35,
			"componentType":5123,
			"count":336,
			"type":"SCALAR"
		},
		{
			"bufferView":36,
			"componentType":5126,
			"count":4836,
			"max":[
				0.4143063426017761,
				8.886075973510742,
				1.280167579650879
			],
			"min":[
				-0.4143063426017761,
				8.67237663269043,
				1.066467523574829
			],
			"type":"VEC3"
		},
		{
			"bufferView":37,
			"componentType":5126,
			"count":4836,
			"type":"VEC3"
		},
		{
			"bufferView":38,
			"componentType":5126,
			"count":4836,
			"type":"VEC2"
		},
		{
			"bufferView":39,
			"componentType":5123,
			"count":5760,
			"type":"SCALAR"
		},
		{
			"bufferView":40,
			"componentType":5126,
			"count":637,
			"max":[
				0.12466609477996826,
				8.189896583557129,
				1.8512401580810547
			],
			"min":[
				-0.12466610968112946,
				7.989506721496582,
				1.8027598857879639
			],
			"type":"VEC3"
		},
		{
			"bufferView":41,
			"componentType":5126,
			"count":637,
			"type":"VEC3"
		},
		{
			"bufferView":42,
			"componentType":5126,
			"count":637,
			"type":"VEC2"
		},
		{
			"bufferView":43,
			"componentType":5123,
			"count":3456,
			"type":"SCALAR"
		},
		{
			"bufferView":44,
			"componentType":5126,
			"count":2777,
			"max":[
				3.1421597003936768,
				9.692671775817871,
				2.548109531402588
			],
			"min":[
				-3.1141018867492676,
				0.00246429443359375,
				-1.228531837463379
			],
			"type":"VEC3"
		},
		{
			"bufferView":45,
			"componentType":5126,
			"count":2777,
			"type":"VEC3"
		},
		{
			"bufferView":46,
			"componentType":5126,
			"count":2777,
			"type":"VEC2"
		},
		{
			"bufferView":47,
			"componentType":5123,
			"count":2823,
			"type":"SCALAR"
		},
		{
			"bufferView":48,
			"componentType":5126,
			"count":1,
			"max":[
				0.75
			],
			"min":[
				0.75
			],
			"type":"SCALAR"
		},
		{
			"bufferView":49,
			"componentType":5126,
			"count":1,
			"type":"VEC4"
		}
	],
	"bufferViews":[
		{
			"buffer":0,
			"byteLength":312,
			"byteOffset":0,
			"target":34962
		},
		{
			"buffer":0,
			"byteLength":312,
			"byteOffset":312,
			"target":34962
		},
		{
			"buffer":0,
			"byteLength":208,
			"byteOffset":624,
			"target":34962
		},
		{
			"buffer":0,
			"byteLength":156,
			"byteOffset":832,
			"target":34963
		},
		{
			"buffer":0,
			"byteLength":480,
			"byteOffset":988,
			"target":34962
		},
		{
			"buffer":0,
			"byteLength":480,
			"byteOffset":1468,
			"target":34962
		},
		{
			"buffer":0,
			"byteLength":320,
			"byteOffset":1948,
			"target":34962
		},
		{
			"buffer":0,
			"byteLength":480,
			"byteOffset":2268,
			"target":34963
		},
		{
			"buffer":0,
			"byteLength":4500,
			"byteOffset":2748,
			"target":34962
		},
		{
			"buffer":0,
			"byteLength":4500,
			"byteOffset":7248,
			"target":34962
		},
		{
			"buffer":0,
			"byteLength":3000,
			"byteOffset":11748,
			"target":34962
		},
		{
			"buffer":0,
			"byteLength":750,
			"byteOffset":14748,
			"target":34963
		},
		{
			"buffer":0,
			"byteLength":480,
			"byteOffset":15500,
			"target":34962
		},
		{
			"buffer":0,
			"byteLength":480,
			"byteOffset":15980,
			"target":34962
		},
		{
			"buffer":0,
			"byteLength":320,
			"byteOffset":16460,
			"target":34962
		},
		{
			"buffer":0,
			"byteLength":480,
			"byteOffset":16780,
			"target":34963
		},
		{
			"buffer":0,
			"byteLength":4500,
			"byteOffset":17260,
			"target":34962
		},
		{
			"buffer":0,
			"byteLength":4500,
			"byteOffset":21760,
			"target":34962
		},
		{
			"buffer":0,
			"byteLength":3000,
			"byteOffset":26260,
			"target":34962
		},
		{
			"buffer":0,
			"byteLength":750,
			"byteOffset":29260,
			"target":34963
		},
		{
			"buffer":0,
			"byteLength":2376,
			"byteOffset":30012,
			"target":34962
		},
		{
			"buffer":0,
			"byteLength":2376,
			"byteOffset":32388,
			"target":34962
		},
		{
			"buffer":0,
			"byteLength":1584,
			"byteOffset":34764,
			"target":34962
		},
		{
			"buffer":0,
			"byteLength":696,
			"byteOffset":36348,
			"target":34963
		},
		{
			"buffer":0,
			"byteLength":3120,
			"byteOffset":37044,
			"target":34962
		},
		{
			"buffer":0,
			"byteLength":3120,
			"byteOffset":40164,
			"target":34962
		},
		{
			"buffer":0,
			"byteLength":2080,
			"byteOffset":43284,
			"target":34962
		},
		{
			"buffer":0,
			"byteLength":744,
			"byteOffset":45364,
			"target":34963
		},
		{
			"buffer":0,
			"byteLength":6336,
			"byteOffset":46108,
			"target":34962
		},
		{
			"buffer":0,
			"byteLength":6336,
			"byteOffset":52444,
			"target":34962
		},
		{
			"buffer":0,
			"byteLength":4224,
			"byteOffset":58780,
			"target":34962
		},
		{
			"buffer":0,
			"byteLength":1056,
			"byteOffset":63004,
			"target":34963
		},
		{
			"buffer":0,
			"byteLength":672,
			"byteOffset":64060,
			"target":34962
		},
		{
			"buffer":0,
			"byteLength":672,
			"byteOffset":64732,
			"target":34962
		},
		{
			"buffer":0,
			"byteLength":448,
			"byteOffset":65404,
			"target":34962
		},
		{
			"buffer":0,
			"byteLength":672,
			"byteOffset":65852,
			"target":34963
		},
		{
			"buffer":0,
			"byteLength":58032,
			"byteOffset":66524,
			"target":34962
		},
		{
			"buffer":0,
			"byteLength":58032,
			"byteOffset":124556,
			"target":34962
		},
		{
			"buffer":0,
			"byteLength":38688,
			"byteOffset":182588,
			"target":34962
		},
		{
			"buffer":0,
			"byteLength":11520,
			"byteOffset":221276,
			"target":34963
		},
		{
			"buffer":0,
			"byteLength":7644,
			"byteOffset":232796,
			"target":34962
		},
		{
			"buffer":0,
			"byteLength":7644,
			"byteOffset":240440,
			"target":34962
		},
		{
			"buffer":0,
			"byteLength":5096,
			"byteOffset":248084,
			"target":34962
		},
		{
			"buffer":0,
			"byteLength":6912,
			"byteOffset":253180,
			"target":34963
		},
		{
			"buffer":0,
			"byteLength":33324,
			"byteOffset":260092,
			"target":34962
		},
		{
			"buffer":0,
			"byteLength":33324,
			"byteOffset":293416,
			"target":34962
		},
		{
			"buffer":0,
			"byteLength":22216,
			"byteOffset":326740,
			"target":34962
		},
		{
			"buffer":0,
			"byteLength":5646,
			"byteOffset":348956,
			"target":34963
		},
		{
			"buffer":0,
			"byteLength":4,
			"byteOffset":354604
		},
		{
			"buffer":0,
			"byteLength":16,
			"byteOffset":354608
		}
	],
	"samplers":[
		{
			"magFilter":9729,
			"minFilter":9987
		}
	],
	"buffers":[
		{
			"byteLength":354624,
			"uri":"minotaver.bin"
		}
	]
}
