{
	"asset":{
		"generator":"Khronos glTF Blender I/O v4.2.60",
		"version":"2.0"
	},
	"scene":0,
	"scenes":[
		{
			"name":"Scene",
			"nodes":[
				7
			]
		}
	],
	"nodes":[
		{
			"mesh":0,
			"name":"Cube.001"
		},
		{
			"mesh":1,
			"name":"Cube.002"
		},
		{
			"mesh":2,
			"name":"Cube.003"
		},
		{
			"mesh":3,
			"name":"kiklca"
		},
		{
			"mesh":4,
			"name":"pas"
		},
		{
			"mesh":5,
			"name":"Sphere",
			"translation":[
				-0.010070900432765484,
				-4.99810791015625,
				-0.09488087147474289
			]
		},
		{
			"mesh":6,
			"name":"Torus.001",
			"rotation":[
				0.3121564984321594,
				0,
				0,
				0.9500306844711304
			],
			"scale":[
				0.14719833433628082,
				0.1471983641386032,
				0.1471983641386032
			],
			"translation":[
				0,
				2.0612497329711914,
				1.6442947387695312
			]
		},
		{
			"children":[
				0,
				1,
				2,
				3,
				4,
				5,
				6
			],
			"mesh":7,
			"name":"Cube",
			"translation":[
				0,
				6.729737281799316,
				0
			]
		}
	],
	"materials":[
		{
			"doubleSided":true,
			"name":"Material.004",
			"pbrMetallicRoughness":{
				"baseColorFactor":[
					0.029341086745262146,
					0.01575152575969696,
					0.004761158488690853,
					1
				],
				"metallicFactor":0,
				"roughnessFactor":0.7913386225700378
			}
		},
		{
			"doubleSided":true,
			"name":"Material.005",
			"pbrMetallicRoughness":{
				"baseColorFactor":[
					0.6655405759811401,
					0.3958618938922882,
					0,
					1
				],
				"roughnessFactor":0.4921259880065918
			}
		},
		{
			"doubleSided":true,
			"name":"Material",
			"pbrMetallicRoughness":{
				"baseColorFactor":[
					0.18867939710617065,
					0.18867939710617065,
					0.18867939710617065,
					1
				],
				"metallicFactor":0,
				"roughnessFactor":0.5
			}
		},
		{
			"doubleSided":true,
			"name":"Material.003",
			"pbrMetallicRoughness":{
				"baseColorFactor":[
					0.02465946599841118,
					0.01258048228919506,
					0.003481619991362095,
					1
				],
				"metallicFactor":0
			}
		},
		{
			"doubleSided":true,
			"emissiveFactor":[
				0.3291189733434834,
				0.0021907237112356315,
				0.019967796462092124
			],
			"name":"Material.002",
			"pbrMetallicRoughness":{
				"baseColorFactor":[
					0.8002749681472778,
					0.02364388108253479,
					0,
					1
				],
				"metallicFactor":0,
				"roughnessFactor":0.5
			}
		},
		{
			"doubleSided":true,
			"name":"Material.001",
			"pbrMetallicRoughness":{
				"baseColorFactor":[
					0.0508740171790123,
					0.03172487020492554,
					0.004405498038977385,
					1
				],
				"metallicFactor":0,
				"roughnessFactor":0.9803149700164795
			}
		}
	],
	"meshes":[
		{
			"name":"Cube.003",
			"primitives":[
				{
					"attributes":{
						"POSITION":0,
						"NORMAL":1,
						"TEXCOORD_0":2
					},
					"indices":3,
					"material":0
				}
			]
		},
		{
			"name":"Cube.006",
			"primitives":[
				{
					"attributes":{
						"POSITION":4,
						"NORMAL":5,
						"TEXCOORD_0":6
					},
					"indices":7,
					"material":1
				}
			]
		},
		{
			"name":"Cube.004",
			"primitives":[
				{
					"attributes":{
						"POSITION":8,
						"NORMAL":9,
						"TEXCOORD_0":10
					},
					"indices":11,
					"material":2
				}
			]
		},
		{
			"name":"Cube.002",
			"primitives":[
				{
					"attributes":{
						"POSITION":12,
						"NORMAL":13,
						"TEXCOORD_0":14
					},
					"indices":15,
					"material":3
				}
			]
		},
		{
			"name":"Cube.005",
			"primitives":[
				{
					"attributes":{
						"POSITION":16,
						"NORMAL":17,
						"TEXCOORD_0":18
					},
					"indices":19,
					"material":1
				}
			]
		},
		{
			"name":"Sphere.001",
			"primitives":[
				{
					"attributes":{
						"POSITION":20,
						"NORMAL":21,
						"TEXCOORD_0":22
					},
					"indices":23,
					"material":4
				}
			]
		},
		{
			"name":"Torus.001",
			"primitives":[
				{
					"attributes":{
						"POSITION":24,
						"NORMAL":25,
						"TEXCOORD_0":26
					},
					"indices":27,
					"material":1
				}
			]
		},
		{
			"name":"Cube.001",
			"primitives":[
				{
					"attributes":{
						"POSITION":28,
						"NORMAL":29,
						"TEXCOORD_0":30
					},
					"indices":31,
					"material":5
				}
			]
		}
	],
	"accessors":[
		{
			"bufferView":0,
			"componentType":5126,
			"count":26,
			"max":[
				1.5649471282958984,
				-6.026790618896484,
				0.529005765914917
			],
			"min":[
				-1.5649471282958984,
				-6.7272725105285645,
				-0.9054005146026611
			],
			"type":"VEC3"
		},
		{
			"bufferView":1,
			"componentType":5126,
			"count":26,
			"type":"VEC3"
		},
		{
			"bufferView":2,
			"componentType":5126,
			"count":26,
			"type":"VEC2"
		},
		{
			"bufferView":3,
			"componentType":5123,
			"count":78,
			"type":"SCALAR"
		},
		{
			"bufferView":4,
			"componentType":5126,
			"count":80,
			"max":[
				4.101964473724365,
				-1.6967487335205078,
				0.32376986742019653
			],
			"min":[
				-4.101964473724365,
				-2.3598692417144775,
				-0.32377007603645325
			],
			"type":"VEC3"
		},
		{
			"bufferView":5,
			"componentType":5126,
			"count":80,
			"type":"VEC3"
		},
		{
			"bufferView":6,
			"componentType":5126,
			"count":80,
			"type":"VEC2"
		},
		{
			"bufferView":7,
			"componentType":5123,
			"count":480,
			"type":"SCALAR"
		},
		{
			"bufferView":8,
			"componentType":5126,
			"count":750,
			"max":[
				2.4478657245635986,
				3.736515998840332,
				1.8414212465286255
			],
			"min":[
				-2.4478657245635986,
				2.440145254135132,
				-0.19537244737148285
			],
			"type":"VEC3"
		},
		{
			"bufferView":9,
			"componentType":5126,
			"count":750,
			"type":"VEC3"
		},
		{
			"bufferView":10,
			"componentType":5126,
			"count":750,
			"type":"VEC2"
		},
		{
			"bufferView":11,
			"componentType":5123,
			"count":750,
			"type":"SCALAR"
		},
		{
			"bufferView":12,
			"componentType":5126,
			"count":466,
			"max":[
				1.113023042678833,
				-1.8846759796142578,
				1.0192153453826904
			],
			"min":[
				-1.113023042678833,
				-4.113883972167969,
				-0.7376890182495117
			],
			"type":"VEC3"
		},
		{
			"bufferView":13,
			"componentType":5126,
			"count":466,
			"type":"VEC3"
		},
		{
			"bufferView":14,
			"componentType":5126,
			"count":466,
			"type":"VEC2"
		},
		{
			"bufferView":15,
			"componentType":5123,
			"count":528,
			"type":"SCALAR"
		},
		{
			"bufferView":16,
			"componentType":5126,
			"count":56,
			"max":[
				1.1173821687698364,
				-1.865563154220581,
				1.028285026550293
			],
			"min":[
				-1.1173821687698364,
				-2.7806451320648193,
				-0.8008487224578857
			],
			"type":"VEC3"
		},
		{
			"bufferView":17,
			"componentType":5126,
			"count":56,
			"type":"VEC3"
		},
		{
			"bufferView":18,
			"componentType":5126,
			"count":56,
			"type":"VEC2"
		},
		{
			"bufferView":19,
			"componentType":5123,
			"count":348,
			"type":"SCALAR"
		},
		{
			"bufferView":20,
			"componentType":5126,
			"count":4764,
			"max":[
				0.4143063426017761,
				7.410680294036865,
				0.9624242782592773
			],
			"min":[
				-0.4143063426017761,
				7.1969804763793945,
				0.7487241625785828
			],
			"type":"VEC3"
		},
		{
			"bufferView":21,
			"componentType":5126,
			"count":4764,
			"type":"VEC3"
		},
		{
			"bufferView":22,
			"componentType":5126,
			"count":4764,
			"type":"VEC2"
		},
		{
			"bufferView":23,
			"componentType":5123,
			"count":5760,
			"type":"SCALAR"
		},
		{
			"bufferView":24,
			"componentType":5126,
			"count":637,
			"max":[
				1.25,
				0.25,
				1.25
			],
			"min":[
				-1.25,
				-0.25,
				-1.25
			],
			"type":"VEC3"
		},
		{
			"bufferView":25,
			"componentType":5126,
			"count":637,
			"type":"VEC3"
		},
		{
			"bufferView":26,
			"componentType":5126,
			"count":637,
			"type":"VEC2"
		},
		{
			"bufferView":27,
			"componentType":5123,
			"count":3456,
			"type":"SCALAR"
		},
		{
			"bufferView":28,
			"componentType":5126,
			"count":2822,
			"max":[
				4.442843437194824,
				2.759075880050659,
				1.7033464908599854
			],
			"min":[
				-4.442843437194824,
				-6.7272725105285645,
				-1.2285315990447998
			],
			"type":"VEC3"
		},
		{
			"bufferView":29,
			"componentType":5126,
			"count":2822,
			"type":"VEC3"
		},
		{
			"bufferView":30,
			"componentType":5126,
			"count":2822,
			"type":"VEC2"
		},
		{
			"bufferView":31,
			"componentType":5123,
			"count":3138,
			"type":"SCALAR"
		}
	],
	"bufferViews":[
		{
			"buffer":0,
			"byteLength":312,
			"byteOffset":0,
			"target":34962
		},
		{
			"buffer":0,
			"byteLength":312,
			"byteOffset":312,
			"target":34962
		},
		{
			"buffer":0,
			"byteLength":208,
			"byteOffset":624,
			"target":34962
		},
		{
			"buffer":0,
			"byteLength":156,
			"byteOffset":832,
			"target":34963
		},
		{
			"buffer":0,
			"byteLength":960,
			"byteOffset":988,
			"target":34962
		},
		{
			"buffer":0,
			"byteLength":960,
			"byteOffset":1948,
			"target":34962
		},
		{
			"buffer":0,
			"byteLength":640,
			"byteOffset":2908,
			"target":34962
		},
		{
			"buffer":0,
			"byteLength":960,
			"byteOffset":3548,
			"target":34963
		},
		{
			"buffer":0,
			"byteLength":9000,
			"byteOffset":4508,
			"target":34962
		},
		{
			"buffer":0,
			"byteLength":9000,
			"byteOffset":13508,
			"target":34962
		},
		{
			"buffer":0,
			"byteLength":6000,
			"byteOffset":22508,
			"target":34962
		},
		{
			"buffer":0,
			"byteLength":1500,
			"byteOffset":28508,
			"target":34963
		},
		{
			"buffer":0,
			"byteLength":5592,
			"byteOffset":30008,
			"target":34962
		},
		{
			"buffer":0,
			"byteLength":5592,
			"byteOffset":35600,
			"target":34962
		},
		{
			"buffer":0,
			"byteLength":3728,
			"byteOffset":41192,
			"target":34962
		},
		{
			"buffer":0,
			"byteLength":1056,
			"byteOffset":44920,
			"target":34963
		},
		{
			"buffer":0,
			"byteLength":672,
			"byteOffset":45976,
			"target":34962
		},
		{
			"buffer":0,
			"byteLength":672,
			"byteOffset":46648,
			"target":34962
		},
		{
			"buffer":0,
			"byteLength":448,
			"byteOffset":47320,
			"target":34962
		},
		{
			"buffer":0,
			"byteLength":696,
			"byteOffset":47768,
			"target":34963
		},
		{
			"buffer":0,
			"byteLength":57168,
			"byteOffset":48464,
			"target":34962
		},
		{
			"buffer":0,
			"byteLength":57168,
			"byteOffset":105632,
			"target":34962
		},
		{
			"buffer":0,
			"byteLength":38112,
			"byteOffset":162800,
			"target":34962
		},
		{
			"buffer":0,
			"byteLength":11520,
			"byteOffset":200912,
			"target":34963
		},
		{
			"buffer":0,
			"byteLength":7644,
			"byteOffset":212432,
			"target":34962
		},
		{
			"buffer":0,
			"byteLength":7644,
			"byteOffset":220076,
			"target":34962
		},
		{
			"buffer":0,
			"byteLength":5096,
			"byteOffset":227720,
			"target":34962
		},
		{
			"buffer":0,
			"byteLength":6912,
			"byteOffset":232816,
			"target":34963
		},
		{
			"buffer":0,
			"byteLength":33864,
			"byteOffset":239728,
			"target":34962
		},
		{
			"buffer":0,
			"byteLength":33864,
			"byteOffset":273592,
			"target":34962
		},
		{
			"buffer":0,
			"byteLength":22576,
			"byteOffset":307456,
			"target":34962
		},
		{
			"buffer":0,
			"byteLength":6276,
			"byteOffset":330032,
			"target":34963
		}
	],
	"buffers":[
		{
			"byteLength":336308,
			"uri":"minotaver.bin"
		}
	]
}
