{
	"asset":{
		"generator":"Khronos glTF Blender I/O v4.2.60",
		"version":"2.0"
	},
	"extensionsUsed":[
		"KHR_materials_specular"
	],
	"scene":0,
	"scenes":[
		{
			"name":"Scene",
			"nodes":[
				11,
				12
			]
		}
	],
	"nodes":[
		{
			"mesh":0,
			"name":"Cube.001"
		},
		{
			"mesh":1,
			"name":"Cube.002"
		},
		{
			"mesh":2,
			"name":"Cube.003"
		},
		{
			"mesh":3,
			"name":"Cube.006"
		},
		{
			"mesh":4,
			"name":"Cube.007"
		},
		{
			"mesh":5,
			"name":"Cube.005"
		},
		{
			"children":[
				5
			],
			"mesh":6,
			"name":"Cylinder"
		},
		{
			"mesh":7,
			"name":"kiklca"
		},
		{
			"mesh":8,
			"name":"pas"
		},
		{
			"mesh":9,
			"name":"Sphere"
		},
		{
			"mesh":10,
			"name":"Torus.001"
		},
		{
			"children":[
				0,
				1,
				2,
				3,
				4,
				6,
				7,
				8,
				9,
				10
			],
			"mesh":11,
			"name":"Cube.004",
			"scale":[
				0.4000000059604645,
				0.4000000059604645,
				0.4000000059604645
			]
		},
		{
			"mesh":12,
			"name":"Trigger",
			"scale":[
				1.425909161567688,
				2.4789488315582275,
				0.8604921102523804
			],
			"translation":[
				-0.03268247842788696,
				2.4860990047454834,
				0.33682847023010254
			]
		}
	],
	"animations":[
		{
			"channels":[
				{
					"sampler":0,
					"target":{
						"node":11,
						"path":"rotation"
					}
				}
			],
			"name":"CubeAction.001",
			"samplers":[
				{
					"input":52,
					"interpolation":"LINEAR",
					"output":53
				}
			]
		}
	],
	"materials":[
		{
			"doubleSided":true,
			"name":"Material.006",
			"pbrMetallicRoughness":{
				"baseColorTexture":{
					"index":0
				},
				"metallicFactor":0
			}
		},
		{
			"doubleSided":true,
			"name":"Material.005",
			"pbrMetallicRoughness":{
				"baseColorTexture":{
					"index":1
				},
				"roughnessFactor":0.4921259880065918
			}
		},
		{
			"doubleSided":true,
			"name":"Material.004",
			"pbrMetallicRoughness":{
				"baseColorTexture":{
					"index":2
				},
				"metallicFactor":0
			}
		},
		{
			"doubleSided":true,
			"name":"Material.007",
			"pbrMetallicRoughness":{
				"baseColorTexture":{
					"index":3
				},
				"metallicFactor":0
			}
		},
		{
			"doubleSided":true,
			"extensions":{
				"KHR_materials_specular":{
					"specularFactor":0
				}
			},
			"name":"Material",
			"pbrMetallicRoughness":{
				"baseColorTexture":{
					"index":4
				},
				"metallicFactor":0.1772727370262146,
				"roughnessFactor":0.8136363625526428
			}
		},
		{
			"doubleSided":true,
			"name":"Material.003",
			"pbrMetallicRoughness":{
				"baseColorTexture":{
					"index":5
				},
				"metallicFactor":0
			}
		},
		{
			"doubleSided":true,
			"name":"Material.002",
			"pbrMetallicRoughness":{
				"baseColorTexture":{
					"index":6
				},
				"metallicFactor":0,
				"roughnessFactor":0
			}
		},
		{
			"doubleSided":true,
			"name":"Material.001",
			"pbrMetallicRoughness":{
				"baseColorTexture":{
					"index":7
				},
				"metallicFactor":0,
				"roughnessFactor":0.9803149700164795
			}
		}
	],
	"meshes":[
		{
			"name":"Cube.003",
			"primitives":[
				{
					"attributes":{
						"POSITION":0,
						"NORMAL":1,
						"TEXCOORD_0":2
					},
					"indices":3,
					"material":0
				}
			]
		},
		{
			"name":"Cube.006",
			"primitives":[
				{
					"attributes":{
						"POSITION":4,
						"NORMAL":5,
						"TEXCOORD_0":6
					},
					"indices":7,
					"material":1
				}
			]
		},
		{
			"name":"Cube.004",
			"primitives":[
				{
					"attributes":{
						"POSITION":8,
						"NORMAL":9,
						"TEXCOORD_0":10
					},
					"indices":11,
					"material":2
				}
			]
		},
		{
			"name":"Cube.008",
			"primitives":[
				{
					"attributes":{
						"POSITION":12,
						"NORMAL":13,
						"TEXCOORD_0":14
					},
					"indices":15,
					"material":1
				}
			]
		},
		{
			"name":"Cube.009",
			"primitives":[
				{
					"attributes":{
						"POSITION":16,
						"NORMAL":17,
						"TEXCOORD_0":18
					},
					"indices":19,
					"material":3
				}
			]
		},
		{
			"name":"Cube",
			"primitives":[
				{
					"attributes":{
						"POSITION":20,
						"NORMAL":21,
						"TEXCOORD_0":22
					},
					"indices":23,
					"material":4
				}
			]
		},
		{
			"name":"Cylinder",
			"primitives":[
				{
					"attributes":{
						"POSITION":24,
						"NORMAL":25,
						"TEXCOORD_0":26
					},
					"indices":27,
					"material":0
				}
			]
		},
		{
			"name":"Cube.002",
			"primitives":[
				{
					"attributes":{
						"POSITION":28,
						"NORMAL":29,
						"TEXCOORD_0":30
					},
					"indices":31,
					"material":5
				}
			]
		},
		{
			"name":"Cube.005",
			"primitives":[
				{
					"attributes":{
						"POSITION":32,
						"NORMAL":33,
						"TEXCOORD_0":34
					},
					"indices":35,
					"material":4
				}
			]
		},
		{
			"name":"Sphere.001",
			"primitives":[
				{
					"attributes":{
						"POSITION":36,
						"NORMAL":37,
						"TEXCOORD_0":38
					},
					"indices":39,
					"material":6
				}
			]
		},
		{
			"name":"Torus.001",
			"primitives":[
				{
					"attributes":{
						"POSITION":40,
						"NORMAL":41,
						"TEXCOORD_0":42
					},
					"indices":43,
					"material":1
				}
			]
		},
		{
			"name":"Cube.001",
			"primitives":[
				{
					"attributes":{
						"POSITION":44,
						"NORMAL":45,
						"TEXCOORD_0":46
					},
					"indices":47,
					"material":7
				}
			]
		},
		{
			"name":"Cube.007",
			"primitives":[
				{
					"attributes":{
						"POSITION":48,
						"NORMAL":49,
						"TEXCOORD_0":50
					},
					"indices":51
				}
			]
		}
	],
	"textures":[
		{
			"sampler":0,
			"source":0
		},
		{
			"sampler":0,
			"source":1
		},
		{
			"sampler":0,
			"source":2
		},
		{
			"sampler":0,
			"source":2
		},
		{
			"sampler":0,
			"source":3
		},
		{
			"sampler":0,
			"source":4
		},
		{
			"sampler":0,
			"source":5
		},
		{
			"sampler":0,
			"source":6
		}
	],
	"images":[
		{
			"mimeType":"image/jpeg",
			"name":"KOPITA_SHAFT_dirt_aerial_02_diff_1k",
			"uri":"KOPITA_SHAFT_dirt_aerial_02_diff_1k.jpg"
		},
		{
			"mimeType":"image/jpeg",
			"name":"dirt_aerial_02_diff_1k.jpg",
			"uri":"dirt_aerial_02_diff_1k_jpg.jpg"
		},
		{
			"mimeType":"image/jpeg",
			"name":"ROGJE_dirt_aerial_02_diff_1k",
			"uri":"ROGJE_dirt_aerial_02_diff_1k.jpg"
		},
		{
			"mimeType":"image/jpeg",
			"name":"dirt_aerial_02_diff_1k_blood",
			"uri":"dirt_aerial_02_diff_1k_blood.jpg"
		},
		{
			"mimeType":"image/jpeg",
			"name":"dirty_carpet_diff_2k.jpg",
			"uri":"dirty_carpet_diff_2k_jpg.jpg"
		},
		{
			"mimeType":"image/png",
			"name":"oci",
			"uri":"oci.png"
		},
		{
			"mimeType":"image/jpeg",
			"name":"BODY2_dirt_aerial_02_diff_1k",
			"uri":"BODY2_dirt_aerial_02_diff_1k.jpg"
		}
	],
	"accessors":[
		{
			"bufferView":0,
			"componentType":5126,
			"count":38,
			"max":[
				1.5649471282958984,
				0.702946662902832,
				0.529005765914917
			],
			"min":[
				-1.5649471282958984,
				0.002464771270751953,
				-0.9054005146026611
			],
			"type":"VEC3"
		},
		{
			"bufferView":1,
			"componentType":5126,
			"count":38,
			"type":"VEC3"
		},
		{
			"bufferView":2,
			"componentType":5126,
			"count":38,
			"type":"VEC2"
		},
		{
			"bufferView":3,
			"componentType":5123,
			"count":78,
			"type":"SCALAR"
		},
		{
			"bufferView":4,
			"componentType":5126,
			"count":96,
			"max":[
				2.9544146060943604,
				6.702750205993652,
				1.6984491348266602
			],
			"min":[
				2.0497286319732666,
				5.748565196990967,
				1.0873050689697266
			],
			"type":"VEC3"
		},
		{
			"bufferView":5,
			"componentType":5126,
			"count":96,
			"type":"VEC3"
		},
		{
			"bufferView":6,
			"componentType":5126,
			"count":96,
			"type":"VEC2"
		},
		{
			"bufferView":7,
			"componentType":5123,
			"count":240,
			"type":"SCALAR"
		},
		{
			"bufferView":8,
			"componentType":5126,
			"count":375,
			"max":[
				2.4693050384521484,
				9.702385902404785,
				2.7866241931915283
			],
			"min":[
				0.4672360420227051,
				9.163796424865723,
				0.5222198963165283
			],
			"type":"VEC3"
		},
		{
			"bufferView":9,
			"componentType":5126,
			"count":375,
			"type":"VEC3"
		},
		{
			"bufferView":10,
			"componentType":5126,
			"count":375,
			"type":"VEC2"
		},
		{
			"bufferView":11,
			"componentType":5123,
			"count":375,
			"type":"SCALAR"
		},
		{
			"bufferView":12,
			"componentType":5126,
			"count":96,
			"max":[
				-1.6894152164459229,
				5.664366722106934,
				1.9361859560012817
			],
			"min":[
				-2.494344472885132,
				4.882802486419678,
				1.1853697299957275
			],
			"type":"VEC3"
		},
		{
			"bufferView":13,
			"componentType":5126,
			"count":96,
			"type":"VEC3"
		},
		{
			"bufferView":14,
			"componentType":5126,
			"count":96,
			"type":"VEC2"
		},
		{
			"bufferView":15,
			"componentType":5123,
			"count":240,
			"type":"SCALAR"
		},
		{
			"bufferView":16,
			"componentType":5126,
			"count":375,
			"max":[
				-0.4523201584815979,
				9.688447952270508,
				2.9286563396453857
			],
			"min":[
				-2.422377586364746,
				9.151814460754395,
				0.5395426750183105
			],
			"type":"VEC3"
		},
		{
			"bufferView":17,
			"componentType":5126,
			"count":375,
			"type":"VEC3"
		},
		{
			"bufferView":18,
			"componentType":5126,
			"count":375,
			"type":"VEC2"
		},
		{
			"bufferView":19,
			"componentType":5123,
			"count":375,
			"type":"SCALAR"
		},
		{
			"bufferView":20,
			"componentType":5126,
			"count":201,
			"max":[
				5.2022552490234375,
				9.293899536132812,
				3.5766186714172363
			],
			"min":[
				3.2537150382995605,
				6.300192356109619,
				0.6681971549987793
			],
			"type":"VEC3"
		},
		{
			"bufferView":21,
			"componentType":5126,
			"count":201,
			"type":"VEC3"
		},
		{
			"bufferView":22,
			"componentType":5126,
			"count":201,
			"type":"VEC2"
		},
		{
			"bufferView":23,
			"componentType":5123,
			"count":348,
			"type":"SCALAR"
		},
		{
			"bufferView":24,
			"componentType":5126,
			"count":260,
			"max":[
				4.884738922119141,
				8.212051391601562,
				2.2777020931243896
			],
			"min":[
				-3.4988203048706055,
				4.167190074920654,
				1.9712189435958862
			],
			"type":"VEC3"
		},
		{
			"bufferView":25,
			"componentType":5126,
			"count":260,
			"type":"VEC3"
		},
		{
			"bufferView":26,
			"componentType":5126,
			"count":260,
			"type":"VEC2"
		},
		{
			"bufferView":27,
			"componentType":5123,
			"count":372,
			"type":"SCALAR"
		},
		{
			"bufferView":28,
			"componentType":5126,
			"count":528,
			"max":[
				1.1130517721176147,
				4.862984657287598,
				1.0200227499008179
			],
			"min":[
				-1.1130517721176147,
				2.613612174987793,
				-0.737720251083374
			],
			"type":"VEC3"
		},
		{
			"bufferView":29,
			"componentType":5126,
			"count":528,
			"type":"VEC3"
		},
		{
			"bufferView":30,
			"componentType":5126,
			"count":528,
			"type":"VEC2"
		},
		{
			"bufferView":31,
			"componentType":5123,
			"count":528,
			"type":"SCALAR"
		},
		{
			"bufferView":32,
			"componentType":5126,
			"count":336,
			"max":[
				1.1176507472991943,
				4.870865345001221,
				1.0257443189620972
			],
			"min":[
				-1.1176507472991943,
				3.953129529953003,
				-0.8004132509231567
			],
			"type":"VEC3"
		},
		{
			"bufferView":33,
			"componentType":5126,
			"count":336,
			"type":"VEC3"
		},
		{
			"bufferView":34,
			"componentType":5126,
			"count":336,
			"type":"VEC2"
		},
		{
			"bufferView":35,
			"componentType":5123,
			"count":336,
			"type":"SCALAR"
		},
		{
			"bufferView":36,
			"componentType":5126,
			"count":4836,
			"max":[
				0.4143063426017761,
				8.886075973510742,
				1.280167579650879
			],
			"min":[
				-0.4143063426017761,
				8.67237663269043,
				1.066467523574829
			],
			"type":"VEC3"
		},
		{
			"bufferView":37,
			"componentType":5126,
			"count":4836,
			"type":"VEC3"
		},
		{
			"bufferView":38,
			"componentType":5126,
			"count":4836,
			"type":"VEC2"
		},
		{
			"bufferView":39,
			"componentType":5123,
			"count":5760,
			"type":"SCALAR"
		},
		{
			"bufferView":40,
			"componentType":5126,
			"count":637,
			"max":[
				0.12466609477996826,
				8.189896583557129,
				1.8512401580810547
			],
			"min":[
				-0.12466610968112946,
				7.989506721496582,
				1.8027598857879639
			],
			"type":"VEC3"
		},
		{
			"bufferView":41,
			"componentType":5126,
			"count":637,
			"type":"VEC3"
		},
		{
			"bufferView":42,
			"componentType":5126,
			"count":637,
			"type":"VEC2"
		},
		{
			"bufferView":43,
			"componentType":5123,
			"count":3456,
			"type":"SCALAR"
		},
		{
			"bufferView":44,
			"componentType":5126,
			"count":2779,
			"max":[
				3.1421597003936768,
				9.692671775817871,
				2.548109531402588
			],
			"min":[
				-3.1141018867492676,
				0.00246429443359375,
				-1.228531837463379
			],
			"type":"VEC3"
		},
		{
			"bufferView":45,
			"componentType":5126,
			"count":2779,
			"type":"VEC3"
		},
		{
			"bufferView":46,
			"componentType":5126,
			"count":2779,
			"type":"VEC2"
		},
		{
			"bufferView":47,
			"componentType":5123,
			"count":2823,
			"type":"SCALAR"
		},
		{
			"bufferView":48,
			"componentType":5126,
			"count":24,
			"max":[
				1,
				1,
				1
			],
			"min":[
				-1,
				-1,
				-1
			],
			"type":"VEC3"
		},
		{
			"bufferView":49,
			"componentType":5126,
			"count":24,
			"type":"VEC3"
		},
		{
			"bufferView":50,
			"componentType":5126,
			"count":24,
			"type":"VEC2"
		},
		{
			"bufferView":51,
			"componentType":5123,
			"count":36,
			"type":"SCALAR"
		},
		{
			"bufferView":52,
			"componentType":5126,
			"count":1,
			"max":[
				0.75
			],
			"min":[
				0.75
			],
			"type":"SCALAR"
		},
		{
			"bufferView":53,
			"componentType":5126,
			"count":1,
			"type":"VEC4"
		}
	],
	"bufferViews":[
		{
			"buffer":0,
			"byteLength":456,
			"byteOffset":0,
			"target":34962
		},
		{
			"buffer":0,
			"byteLength":456,
			"byteOffset":456,
			"target":34962
		},
		{
			"buffer":0,
			"byteLength":304,
			"byteOffset":912,
			"target":34962
		},
		{
			"buffer":0,
			"byteLength":156,
			"byteOffset":1216,
			"target":34963
		},
		{
			"buffer":0,
			"byteLength":1152,
			"byteOffset":1372,
			"target":34962
		},
		{
			"buffer":0,
			"byteLength":1152,
			"byteOffset":2524,
			"target":34962
		},
		{
			"buffer":0,
			"byteLength":768,
			"byteOffset":3676,
			"target":34962
		},
		{
			"buffer":0,
			"byteLength":480,
			"byteOffset":4444,
			"target":34963
		},
		{
			"buffer":0,
			"byteLength":4500,
			"byteOffset":4924,
			"target":34962
		},
		{
			"buffer":0,
			"byteLength":4500,
			"byteOffset":9424,
			"target":34962
		},
		{
			"buffer":0,
			"byteLength":3000,
			"byteOffset":13924,
			"target":34962
		},
		{
			"buffer":0,
			"byteLength":750,
			"byteOffset":16924,
			"target":34963
		},
		{
			"buffer":0,
			"byteLength":1152,
			"byteOffset":17676,
			"target":34962
		},
		{
			"buffer":0,
			"byteLength":1152,
			"byteOffset":18828,
			"target":34962
		},
		{
			"buffer":0,
			"byteLength":768,
			"byteOffset":19980,
			"target":34962
		},
		{
			"buffer":0,
			"byteLength":480,
			"byteOffset":20748,
			"target":34963
		},
		{
			"buffer":0,
			"byteLength":4500,
			"byteOffset":21228,
			"target":34962
		},
		{
			"buffer":0,
			"byteLength":4500,
			"byteOffset":25728,
			"target":34962
		},
		{
			"buffer":0,
			"byteLength":3000,
			"byteOffset":30228,
			"target":34962
		},
		{
			"buffer":0,
			"byteLength":750,
			"byteOffset":33228,
			"target":34963
		},
		{
			"buffer":0,
			"byteLength":2412,
			"byteOffset":33980,
			"target":34962
		},
		{
			"buffer":0,
			"byteLength":2412,
			"byteOffset":36392,
			"target":34962
		},
		{
			"buffer":0,
			"byteLength":1608,
			"byteOffset":38804,
			"target":34962
		},
		{
			"buffer":0,
			"byteLength":696,
			"byteOffset":40412,
			"target":34963
		},
		{
			"buffer":0,
			"byteLength":3120,
			"byteOffset":41108,
			"target":34962
		},
		{
			"buffer":0,
			"byteLength":3120,
			"byteOffset":44228,
			"target":34962
		},
		{
			"buffer":0,
			"byteLength":2080,
			"byteOffset":47348,
			"target":34962
		},
		{
			"buffer":0,
			"byteLength":744,
			"byteOffset":49428,
			"target":34963
		},
		{
			"buffer":0,
			"byteLength":6336,
			"byteOffset":50172,
			"target":34962
		},
		{
			"buffer":0,
			"byteLength":6336,
			"byteOffset":56508,
			"target":34962
		},
		{
			"buffer":0,
			"byteLength":4224,
			"byteOffset":62844,
			"target":34962
		},
		{
			"buffer":0,
			"byteLength":1056,
			"byteOffset":67068,
			"target":34963
		},
		{
			"buffer":0,
			"byteLength":4032,
			"byteOffset":68124,
			"target":34962
		},
		{
			"buffer":0,
			"byteLength":4032,
			"byteOffset":72156,
			"target":34962
		},
		{
			"buffer":0,
			"byteLength":2688,
			"byteOffset":76188,
			"target":34962
		},
		{
			"buffer":0,
			"byteLength":672,
			"byteOffset":78876,
			"target":34963
		},
		{
			"buffer":0,
			"byteLength":58032,
			"byteOffset":79548,
			"target":34962
		},
		{
			"buffer":0,
			"byteLength":58032,
			"byteOffset":137580,
			"target":34962
		},
		{
			"buffer":0,
			"byteLength":38688,
			"byteOffset":195612,
			"target":34962
		},
		{
			"buffer":0,
			"byteLength":11520,
			"byteOffset":234300,
			"target":34963
		},
		{
			"buffer":0,
			"byteLength":7644,
			"byteOffset":245820,
			"target":34962
		},
		{
			"buffer":0,
			"byteLength":7644,
			"byteOffset":253464,
			"target":34962
		},
		{
			"buffer":0,
			"byteLength":5096,
			"byteOffset":261108,
			"target":34962
		},
		{
			"buffer":0,
			"byteLength":6912,
			"byteOffset":266204,
			"target":34963
		},
		{
			"buffer":0,
			"byteLength":33348,
			"byteOffset":273116,
			"target":34962
		},
		{
			"buffer":0,
			"byteLength":33348,
			"byteOffset":306464,
			"target":34962
		},
		{
			"buffer":0,
			"byteLength":22232,
			"byteOffset":339812,
			"target":34962
		},
		{
			"buffer":0,
			"byteLength":5646,
			"byteOffset":362044,
			"target":34963
		},
		{
			"buffer":0,
			"byteLength":288,
			"byteOffset":367692,
			"target":34962
		},
		{
			"buffer":0,
			"byteLength":288,
			"byteOffset":367980,
			"target":34962
		},
		{
			"buffer":0,
			"byteLength":192,
			"byteOffset":368268,
			"target":34962
		},
		{
			"buffer":0,
			"byteLength":72,
			"byteOffset":368460,
			"target":34963
		},
		{
			"buffer":0,
			"byteLength":4,
			"byteOffset":368532
		},
		{
			"buffer":0,
			"byteLength":16,
			"byteOffset":368536
		}
	],
	"samplers":[
		{
			"magFilter":9729,
			"minFilter":9987
		}
	],
	"buffers":[
		{
			"byteLength":368552,
			"uri":"minotaver5.bin"
		}
	]
}
