{
	"asset":{
		"generator":"Khronos glTF Blender I/O v4.3.47",
		"version":"2.0"
	},
	"scene":0,
	"scenes":[
		{
			"name":"Scene",
			"nodes":[
				1,
				2,
				3,
				4,
				7
			]
		}
	],
	"nodes":[
		{
			"mesh":0,
			"name":"Plane",
			"rotation":[
				0.70710688829422,
				0,
				0,
				0.7071066498756409
			],
			"scale":[
				0.3590836822986603,
				2.6116318702697754,
				7.992312431335449
			],
			"translation":[
				0,
				7.560333251953125,
				0
			]
		},
		{
			"children":[
				0
			],
			"mesh":1,
			"name":"swordInChest",
			"rotation":[
				0.5,
				0.5,
				-0.5,
				0.5
			],
			"scale":[
				0.47890856862068176,
				0.14854344725608826,
				0.14854344725608826
			],
			"translation":[
				-1.0669803619384766,
				0.5609909296035767,
				0
			]
		},
		{
			"mesh":2,
			"name":"Torus.001",
			"rotation":[
				0,
				0,
				0.2719881236553192,
				0.9623005986213684
			],
			"scale":[
				0.14383567869663239,
				0.13607057929039001,
				0.11376538872718811
			],
			"translation":[
				-0.7374058961868286,
				0.09729962050914764,
				1.4542338848114014
			]
		},
		{
			"mesh":3,
			"name":"Cube.002",
			"rotation":[
				0,
				0,
				0.8727738857269287,
				0.4881247282028198
			],
			"scale":[
				-0.18896089494228363,
				-0.18896089494228363,
				-0.11791165173053741
			],
			"translation":[
				-0.5272878408432007,
				0.22638927400112152,
				1.468713641166687
			]
		},
		{
			"mesh":4,
			"name":"Cube",
			"scale":[
				2.2637577056884766,
				1,
				1
			],
			"translation":[
				0,
				1.0079766511917114,
				0
			]
		},
		{
			"mesh":5,
			"name":"Torus.003",
			"rotation":[
				-0.70710688829422,
				0,
				0,
				0.7071066498756409
			],
			"scale":[
				0.5360165238380432,
				0.3819166421890259,
				0.5318268537521362
			],
			"translation":[
				0,
				-0.29403555393218994,
				0.33426976203918457
			]
		},
		{
			"children":[
				5
			],
			"mesh":6,
			"name":"Plane.001",
			"rotation":[
				0.7071069478988647,
				0,
				0,
				0.7071066498756409
			],
			"scale":[
				0.11853824555873871,
				0.3562835454940796,
				0.3562835454940796
			],
			"translation":[
				0,
				-0.0037773847579956055,
				2.1231300830841064
			]
		},
		{
			"children":[
				6
			],
			"mesh":7,
			"name":"Cube.001",
			"rotation":[
				-0.8191519975662231,
				0,
				0,
				0.5735765099525452
			],
			"scale":[
				2.2637577056884766,
				1,
				1
			],
			"translation":[
				0,
				1.4983103275299072,
				-0.9999998211860657
			]
		}
	],
	"materials":[
		{
			"doubleSided":true,
			"name":"Material.015",
			"pbrMetallicRoughness":{
				"baseColorTexture":{
					"index":0
				},
				"roughnessFactor":0.2545454502105713
			}
		},
		{
			"doubleSided":true,
			"name":"Material.014",
			"pbrMetallicRoughness":{
				"baseColorTexture":{
					"index":1
				},
				"metallicFactor":0
			}
		},
		{
			"doubleSided":true,
			"name":"Material.016",
			"pbrMetallicRoughness":{
				"baseColorTexture":{
					"index":2
				},
				"roughnessFactor":0.6338582634925842
			}
		},
		{
			"doubleSided":true,
			"name":"Material.017",
			"pbrMetallicRoughness":{
				"baseColorTexture":{
					"index":3
				},
				"metallicFactor":0
			}
		}
	],
	"meshes":[
		{
			"name":"Plane.001",
			"primitives":[
				{
					"attributes":{
						"POSITION":0,
						"NORMAL":1,
						"TEXCOORD_0":2
					},
					"indices":3,
					"material":0
				}
			]
		},
		{
			"name":"Cube.020",
			"primitives":[
				{
					"attributes":{
						"POSITION":4,
						"NORMAL":5,
						"TEXCOORD_0":6
					},
					"indices":7,
					"material":1
				}
			]
		},
		{
			"name":"Torus.004",
			"primitives":[
				{
					"attributes":{
						"POSITION":8,
						"NORMAL":9,
						"TEXCOORD_0":10
					},
					"indices":11,
					"material":2
				}
			]
		},
		{
			"name":"Cube.021",
			"primitives":[
				{
					"attributes":{
						"POSITION":12,
						"NORMAL":13,
						"TEXCOORD_0":14
					},
					"indices":15,
					"material":2
				}
			]
		},
		{
			"name":"Cube.022",
			"primitives":[
				{
					"attributes":{
						"POSITION":16,
						"NORMAL":17,
						"TEXCOORD_0":18
					},
					"indices":19,
					"material":3
				}
			]
		},
		{
			"name":"Torus.003",
			"primitives":[
				{
					"attributes":{
						"POSITION":20,
						"NORMAL":21,
						"TEXCOORD_0":22
					},
					"indices":11,
					"material":2
				}
			]
		},
		{
			"name":"Plane.002",
			"primitives":[
				{
					"attributes":{
						"POSITION":23,
						"NORMAL":24,
						"TEXCOORD_0":25
					},
					"indices":26,
					"material":2
				}
			]
		},
		{
			"name":"Cube.023",
			"primitives":[
				{
					"attributes":{
						"POSITION":27,
						"NORMAL":28,
						"TEXCOORD_0":29
					},
					"indices":30,
					"material":3
				}
			]
		}
	],
	"textures":[
		{
			"sampler":0,
			"source":0
		},
		{
			"sampler":0,
			"source":1
		},
		{
			"sampler":0,
			"source":2
		},
		{
			"sampler":0,
			"source":3
		}
	],
	"images":[
		{
			"mimeType":"image/png",
			"name":"cool_sword",
			"uri":"cool_sword.png"
		},
		{
			"mimeType":"image/png",
			"name":"cool_sword_rocaj",
			"uri":"cool_sword_rocaj.png"
		},
		{
			"mimeType":"image/png",
			"name":"skrinja_kljucavnica",
			"uri":"skrinja_kljucavnica.png"
		},
		{
			"mimeType":"image/jpeg",
			"name":"skrinja",
			"uri":"skrinja.jpg"
		}
	],
	"accessors":[
		{
			"bufferView":0,
			"componentType":5126,
			"count":674,
			"max":[
				2.3182871341705322,
				0.2979016602039337,
				0.8867738246917725
			],
			"min":[
				-2.312134265899658,
				-0.2971380650997162,
				-1.5244250297546387
			],
			"type":"VEC3"
		},
		{
			"bufferView":1,
			"componentType":5126,
			"count":674,
			"type":"VEC3"
		},
		{
			"bufferView":2,
			"componentType":5126,
			"count":674,
			"type":"VEC2"
		},
		{
			"bufferView":3,
			"componentType":5123,
			"count":744,
			"type":"SCALAR"
		},
		{
			"bufferView":4,
			"componentType":5126,
			"count":248,
			"max":[
				0.9584236145019531,
				1.7034718990325928,
				1.115509033203125
			],
			"min":[
				-0.9584236145019531,
				-5.0652875900268555,
				-1.115509033203125
			],
			"type":"VEC3"
		},
		{
			"bufferView":5,
			"componentType":5126,
			"count":248,
			"type":"VEC3"
		},
		{
			"bufferView":6,
			"componentType":5126,
			"count":248,
			"type":"VEC2"
		},
		{
			"bufferView":7,
			"componentType":5123,
			"count":300,
			"type":"SCALAR"
		},
		{
			"bufferView":8,
			"componentType":5126,
			"count":2112,
			"max":[
				0.8999999761581421,
				0.2078625112771988,
				0.8999999761581421
			],
			"min":[
				-0.8999999761581421,
				-0.2078625112771988,
				-0.8999999761581421
			],
			"type":"VEC3"
		},
		{
			"bufferView":9,
			"componentType":5126,
			"count":2112,
			"type":"VEC3"
		},
		{
			"bufferView":10,
			"componentType":5126,
			"count":2112,
			"type":"VEC2"
		},
		{
			"bufferView":11,
			"componentType":5123,
			"count":3168,
			"type":"SCALAR"
		},
		{
			"bufferView":12,
			"componentType":5126,
			"count":54,
			"max":[
				1,
				1,
				1
			],
			"min":[
				-1,
				-1,
				-1
			],
			"type":"VEC3"
		},
		{
			"bufferView":13,
			"componentType":5126,
			"count":54,
			"type":"VEC3"
		},
		{
			"bufferView":14,
			"componentType":5126,
			"count":54,
			"type":"VEC2"
		},
		{
			"bufferView":15,
			"componentType":5123,
			"count":144,
			"type":"SCALAR"
		},
		{
			"bufferView":16,
			"componentType":5126,
			"count":214,
			"max":[
				1,
				0.5939761996269226,
				1
			],
			"min":[
				-1,
				-1,
				-1
			],
			"type":"VEC3"
		},
		{
			"bufferView":17,
			"componentType":5126,
			"count":214,
			"type":"VEC3"
		},
		{
			"bufferView":18,
			"componentType":5126,
			"count":214,
			"type":"VEC2"
		},
		{
			"bufferView":19,
			"componentType":5123,
			"count":444,
			"type":"SCALAR"
		},
		{
			"bufferView":20,
			"componentType":5126,
			"count":2112,
			"max":[
				0.8999999761581421,
				0.2078625112771988,
				0.8999999761581421
			],
			"min":[
				-0.8999999761581421,
				-0.2078625112771988,
				-0.8999999761581421
			],
			"type":"VEC3"
		},
		{
			"bufferView":21,
			"componentType":5126,
			"count":2112,
			"type":"VEC3"
		},
		{
			"bufferView":22,
			"componentType":5126,
			"count":2112,
			"type":"VEC2"
		},
		{
			"bufferView":23,
			"componentType":5126,
			"count":130,
			"max":[
				1,
				-0.1681075394153595,
				1
			],
			"min":[
				-1,
				-0.5581075549125671,
				-1
			],
			"type":"VEC3"
		},
		{
			"bufferView":24,
			"componentType":5126,
			"count":130,
			"type":"VEC3"
		},
		{
			"bufferView":25,
			"componentType":5126,
			"count":130,
			"type":"VEC2"
		},
		{
			"bufferView":26,
			"componentType":5123,
			"count":276,
			"type":"SCALAR"
		},
		{
			"bufferView":27,
			"componentType":5126,
			"count":480,
			"max":[
				1,
				0.7619178295135498,
				1.9999992847442627
			],
			"min":[
				-1,
				0.012345224618911743,
				-5.960464477539062e-07
			],
			"type":"VEC3"
		},
		{
			"bufferView":28,
			"componentType":5126,
			"count":480,
			"type":"VEC3"
		},
		{
			"bufferView":29,
			"componentType":5126,
			"count":480,
			"type":"VEC2"
		},
		{
			"bufferView":30,
			"componentType":5123,
			"count":648,
			"type":"SCALAR"
		}
	],
	"bufferViews":[
		{
			"buffer":0,
			"byteLength":8088,
			"byteOffset":0,
			"target":34962
		},
		{
			"buffer":0,
			"byteLength":8088,
			"byteOffset":8088,
			"target":34962
		},
		{
			"buffer":0,
			"byteLength":5392,
			"byteOffset":16176,
			"target":34962
		},
		{
			"buffer":0,
			"byteLength":1488,
			"byteOffset":21568,
			"target":34963
		},
		{
			"buffer":0,
			"byteLength":2976,
			"byteOffset":23056,
			"target":34962
		},
		{
			"buffer":0,
			"byteLength":2976,
			"byteOffset":26032,
			"target":34962
		},
		{
			"buffer":0,
			"byteLength":1984,
			"byteOffset":29008,
			"target":34962
		},
		{
			"buffer":0,
			"byteLength":600,
			"byteOffset":30992,
			"target":34963
		},
		{
			"buffer":0,
			"byteLength":25344,
			"byteOffset":31592,
			"target":34962
		},
		{
			"buffer":0,
			"byteLength":25344,
			"byteOffset":56936,
			"target":34962
		},
		{
			"buffer":0,
			"byteLength":16896,
			"byteOffset":82280,
			"target":34962
		},
		{
			"buffer":0,
			"byteLength":6336,
			"byteOffset":99176,
			"target":34963
		},
		{
			"buffer":0,
			"byteLength":648,
			"byteOffset":105512,
			"target":34962
		},
		{
			"buffer":0,
			"byteLength":648,
			"byteOffset":106160,
			"target":34962
		},
		{
			"buffer":0,
			"byteLength":432,
			"byteOffset":106808,
			"target":34962
		},
		{
			"buffer":0,
			"byteLength":288,
			"byteOffset":107240,
			"target":34963
		},
		{
			"buffer":0,
			"byteLength":2568,
			"byteOffset":107528,
			"target":34962
		},
		{
			"buffer":0,
			"byteLength":2568,
			"byteOffset":110096,
			"target":34962
		},
		{
			"buffer":0,
			"byteLength":1712,
			"byteOffset":112664,
			"target":34962
		},
		{
			"buffer":0,
			"byteLength":888,
			"byteOffset":114376,
			"target":34963
		},
		{
			"buffer":0,
			"byteLength":25344,
			"byteOffset":115264,
			"target":34962
		},
		{
			"buffer":0,
			"byteLength":25344,
			"byteOffset":140608,
			"target":34962
		},
		{
			"buffer":0,
			"byteLength":16896,
			"byteOffset":165952,
			"target":34962
		},
		{
			"buffer":0,
			"byteLength":1560,
			"byteOffset":182848,
			"target":34962
		},
		{
			"buffer":0,
			"byteLength":1560,
			"byteOffset":184408,
			"target":34962
		},
		{
			"buffer":0,
			"byteLength":1040,
			"byteOffset":185968,
			"target":34962
		},
		{
			"buffer":0,
			"byteLength":552,
			"byteOffset":187008,
			"target":34963
		},
		{
			"buffer":0,
			"byteLength":5760,
			"byteOffset":187560,
			"target":34962
		},
		{
			"buffer":0,
			"byteLength":5760,
			"byteOffset":193320,
			"target":34962
		},
		{
			"buffer":0,
			"byteLength":3840,
			"byteOffset":199080,
			"target":34962
		},
		{
			"buffer":0,
			"byteLength":1296,
			"byteOffset":202920,
			"target":34963
		}
	],
	"samplers":[
		{
			"magFilter":9729,
			"minFilter":9987
		}
	],
	"buffers":[
		{
			"byteLength":204216,
			"uri":"skrinjaodprta%2Bsword.bin"
		}
	]
}
