{
	"asset":{
		"generator":"Khronos glTF Blender I/O v4.2.60",
		"version":"2.0"
	},
	"scene":0,
	"scenes":[
		{
			"name":"Scene",
			"nodes":[
				1,
				2,
				3,
				6,
				7
			]
		}
	],
	"nodes":[
		{
			"mesh":0,
			"name":"Plane"
		},
		{
			"children":[
				0
			],
			"mesh":1,
			"name":"swordInChest"
		},
		{
			"mesh":2,
			"name":"Torus.001"
		},
		{
			"mesh":3,
			"name":"Cube.002"
		},
		{
			"mesh":4,
			"name":"Torus.003"
		},
		{
			"children":[
				4
			],
			"mesh":5,
			"name":"Plane.001"
		},
		{
			"children":[
				5
			],
			"mesh":6,
			"name":"Cube.001"
		},
		{
			"mesh":7,
			"name":"Cube"
		}
	],
	"materials":[
		{
			"doubleSided":true,
			"name":"Material.015",
			"pbrMetallicRoughness":{
				"baseColorTexture":{
					"index":0
				},
				"roughnessFactor":0.2545454502105713
			}
		},
		{
			"doubleSided":true,
			"name":"Material.014",
			"pbrMetallicRoughness":{
				"baseColorTexture":{
					"index":1
				},
				"metallicFactor":0
			}
		},
		{
			"doubleSided":true,
			"name":"Material.016",
			"pbrMetallicRoughness":{
				"baseColorTexture":{
					"index":2
				},
				"roughnessFactor":0.6338582634925842
			}
		},
		{
			"doubleSided":true,
			"name":"Material.001",
			"pbrMetallicRoughness":{
				"baseColorTexture":{
					"index":3
				},
				"metallicFactor":0
			}
		}
	],
	"meshes":[
		{
			"name":"Plane.001",
			"primitives":[
				{
					"attributes":{
						"POSITION":0,
						"NORMAL":1,
						"TEXCOORD_0":2
					},
					"indices":3,
					"material":0
				}
			]
		},
		{
			"name":"Cube.020",
			"primitives":[
				{
					"attributes":{
						"POSITION":4,
						"NORMAL":5,
						"TEXCOORD_0":6
					},
					"indices":7,
					"material":1
				}
			]
		},
		{
			"name":"Torus.004",
			"primitives":[
				{
					"attributes":{
						"POSITION":8,
						"NORMAL":9,
						"TEXCOORD_0":10
					},
					"indices":11,
					"material":2
				}
			]
		},
		{
			"name":"Cube.021",
			"primitives":[
				{
					"attributes":{
						"POSITION":12,
						"NORMAL":13,
						"TEXCOORD_0":14
					},
					"indices":15,
					"material":2
				}
			]
		},
		{
			"name":"Torus.003",
			"primitives":[
				{
					"attributes":{
						"POSITION":16,
						"NORMAL":17,
						"TEXCOORD_0":18
					},
					"indices":19,
					"material":2
				}
			]
		},
		{
			"name":"Plane.002",
			"primitives":[
				{
					"attributes":{
						"POSITION":20,
						"NORMAL":21,
						"TEXCOORD_0":22
					},
					"indices":23,
					"material":2
				}
			]
		},
		{
			"name":"Cube.001",
			"primitives":[
				{
					"attributes":{
						"POSITION":24,
						"NORMAL":25,
						"TEXCOORD_0":26
					},
					"indices":27,
					"material":3
				}
			]
		},
		{
			"name":"Cube",
			"primitives":[
				{
					"attributes":{
						"POSITION":28,
						"NORMAL":29,
						"TEXCOORD_0":30
					},
					"indices":31,
					"material":3
				}
			]
		}
	],
	"textures":[
		{
			"sampler":0,
			"source":0
		},
		{
			"sampler":0,
			"source":1
		},
		{
			"sampler":0,
			"source":2
		},
		{
			"sampler":0,
			"source":3
		}
	],
	"images":[
		{
			"mimeType":"image/png",
			"name":"cool_sword",
			"uri":"cool_sword.png"
		},
		{
			"mimeType":"image/png",
			"name":"cool_sword_rocaj",
			"uri":"cool_sword_rocaj.png"
		},
		{
			"mimeType":"image/jpeg",
			"name":"KLJUCAVNICA_dirt_aerial_02_diff_1k_jpg",
			"uri":"KLJUCAVNICA_dirt_aerial_02_diff_1k_jpg.jpg"
		},
		{
			"mimeType":"image/jpeg",
			"name":"16599",
			"uri":"16599.jpg"
		}
	],
	"accessors":[
		{
			"bufferView":0,
			"componentType":5126,
			"count":676,
			"max":[
				1.865863561630249,
				0.6762630343437195,
				0.3976137638092041
			],
			"min":[
				-0.99672532081604,
				0.4454227685928345,
				-0.3986717760562897
			],
			"type":"VEC3"
		},
		{
			"bufferView":1,
			"componentType":5126,
			"count":676,
			"type":"VEC3"
		},
		{
			"bufferView":2,
			"componentType":5126,
			"count":676,
			"type":"VEC2"
		},
		{
			"bufferView":3,
			"componentType":5123,
			"count":744,
			"type":"SCALAR"
		},
		{
			"bufferView":4,
			"componentType":5126,
			"count":252,
			"max":[
				-0.8139407634735107,
				0.7266924977302551,
				0.45899727940559387
			],
			"min":[
				-1.819395661354065,
				0.3952893614768982,
				-0.45899727940559387
			],
			"type":"VEC3"
		},
		{
			"bufferView":5,
			"componentType":5126,
			"count":252,
			"type":"VEC3"
		},
		{
			"bufferView":6,
			"componentType":5126,
			"count":252,
			"type":"VEC2"
		},
		{
			"bufferView":7,
			"componentType":5123,
			"count":300,
			"type":"SCALAR"
		},
		{
			"bufferView":8,
			"componentType":5126,
			"count":2272,
			"max":[
				-0.623105525970459,
				0.17796733975410461,
				1.5566227436065674
			],
			"min":[
				-0.8517062664031982,
				0.016631893813610077,
				1.3518450260162354
			],
			"type":"VEC3"
		},
		{
			"bufferView":9,
			"componentType":5126,
			"count":2272,
			"type":"VEC3"
		},
		{
			"bufferView":10,
			"componentType":5126,
			"count":2272,
			"type":"VEC2"
		},
		{
			"bufferView":11,
			"componentType":5123,
			"count":3168,
			"type":"SCALAR"
		},
		{
			"bufferView":12,
			"componentType":5126,
			"count":54,
			"max":[
				-0.2673695683479309,
				0.4863075613975525,
				1.586625337600708
			],
			"min":[
				-0.7872061133384705,
				-0.033528998494148254,
				1.350801944732666
			],
			"type":"VEC3"
		},
		{
			"bufferView":13,
			"componentType":5126,
			"count":54,
			"type":"VEC3"
		},
		{
			"bufferView":14,
			"componentType":5126,
			"count":54,
			"type":"VEC2"
		},
		{
			"bufferView":15,
			"componentType":5123,
			"count":144,
			"type":"SCALAR"
		},
		{
			"bufferView":16,
			"componentType":5126,
			"count":2382,
			"max":[
				0.08924371004104614,
				3.5819883346557617,
				-1.5722898244857788
			],
			"min":[
				-0.08924371004104614,
				3.258727550506592,
				-1.7154847383499146
			],
			"type":"VEC3"
		},
		{
			"bufferView":17,
			"componentType":5126,
			"count":2382,
			"type":"VEC3"
		},
		{
			"bufferView":18,
			"componentType":5126,
			"count":2382,
			"type":"VEC2"
		},
		{
			"bufferView":19,
			"componentType":5123,
			"count":3168,
			"type":"SCALAR"
		},
		{
			"bufferView":20,
			"componentType":5126,
			"count":135,
			"max":[
				0.1849936991930008,
				3.53851580619812,
				-1.4081783294677734
			],
			"min":[
				-0.1849936991930008,
				3.2363648414611816,
				-2.1087558269500732
			],
			"type":"VEC3"
		},
		{
			"bufferView":21,
			"componentType":5126,
			"count":135,
			"type":"VEC3"
		},
		{
			"bufferView":22,
			"componentType":5126,
			"count":135,
			"type":"VEC2"
		},
		{
			"bufferView":23,
			"componentType":5123,
			"count":276,
			"type":"SCALAR"
		},
		{
			"bufferView":24,
			"componentType":5126,
			"count":960,
			"max":[
				2.2637577056884766,
				3.391727924346924,
				-1.0117111206054688
			],
			"min":[
				-2.2637577056884766,
				1.2867679595947266,
				-2.2670652866363525
			],
			"type":"VEC3"
		},
		{
			"bufferView":25,
			"componentType":5126,
			"count":960,
			"type":"VEC3"
		},
		{
			"bufferView":26,
			"componentType":5126,
			"count":960,
			"type":"VEC2"
		},
		{
			"bufferView":27,
			"componentType":5123,
			"count":1296,
			"type":"SCALAR"
		},
		{
			"bufferView":28,
			"componentType":5126,
			"count":214,
			"max":[
				2.2637577056884766,
				1.6019527912139893,
				1
			],
			"min":[
				-2.2637577056884766,
				0.007976651191711426,
				-1
			],
			"type":"VEC3"
		},
		{
			"bufferView":29,
			"componentType":5126,
			"count":214,
			"type":"VEC3"
		},
		{
			"bufferView":30,
			"componentType":5126,
			"count":214,
			"type":"VEC2"
		},
		{
			"bufferView":31,
			"componentType":5123,
			"count":444,
			"type":"SCALAR"
		}
	],
	"bufferViews":[
		{
			"buffer":0,
			"byteLength":8112,
			"byteOffset":0,
			"target":34962
		},
		{
			"buffer":0,
			"byteLength":8112,
			"byteOffset":8112,
			"target":34962
		},
		{
			"buffer":0,
			"byteLength":5408,
			"byteOffset":16224,
			"target":34962
		},
		{
			"buffer":0,
			"byteLength":1488,
			"byteOffset":21632,
			"target":34963
		},
		{
			"buffer":0,
			"byteLength":3024,
			"byteOffset":23120,
			"target":34962
		},
		{
			"buffer":0,
			"byteLength":3024,
			"byteOffset":26144,
			"target":34962
		},
		{
			"buffer":0,
			"byteLength":2016,
			"byteOffset":29168,
			"target":34962
		},
		{
			"buffer":0,
			"byteLength":600,
			"byteOffset":31184,
			"target":34963
		},
		{
			"buffer":0,
			"byteLength":27264,
			"byteOffset":31784,
			"target":34962
		},
		{
			"buffer":0,
			"byteLength":27264,
			"byteOffset":59048,
			"target":34962
		},
		{
			"buffer":0,
			"byteLength":18176,
			"byteOffset":86312,
			"target":34962
		},
		{
			"buffer":0,
			"byteLength":6336,
			"byteOffset":104488,
			"target":34963
		},
		{
			"buffer":0,
			"byteLength":648,
			"byteOffset":110824,
			"target":34962
		},
		{
			"buffer":0,
			"byteLength":648,
			"byteOffset":111472,
			"target":34962
		},
		{
			"buffer":0,
			"byteLength":432,
			"byteOffset":112120,
			"target":34962
		},
		{
			"buffer":0,
			"byteLength":288,
			"byteOffset":112552,
			"target":34963
		},
		{
			"buffer":0,
			"byteLength":28584,
			"byteOffset":112840,
			"target":34962
		},
		{
			"buffer":0,
			"byteLength":28584,
			"byteOffset":141424,
			"target":34962
		},
		{
			"buffer":0,
			"byteLength":19056,
			"byteOffset":170008,
			"target":34962
		},
		{
			"buffer":0,
			"byteLength":6336,
			"byteOffset":189064,
			"target":34963
		},
		{
			"buffer":0,
			"byteLength":1620,
			"byteOffset":195400,
			"target":34962
		},
		{
			"buffer":0,
			"byteLength":1620,
			"byteOffset":197020,
			"target":34962
		},
		{
			"buffer":0,
			"byteLength":1080,
			"byteOffset":198640,
			"target":34962
		},
		{
			"buffer":0,
			"byteLength":552,
			"byteOffset":199720,
			"target":34963
		},
		{
			"buffer":0,
			"byteLength":11520,
			"byteOffset":200272,
			"target":34962
		},
		{
			"buffer":0,
			"byteLength":11520,
			"byteOffset":211792,
			"target":34962
		},
		{
			"buffer":0,
			"byteLength":7680,
			"byteOffset":223312,
			"target":34962
		},
		{
			"buffer":0,
			"byteLength":2592,
			"byteOffset":230992,
			"target":34963
		},
		{
			"buffer":0,
			"byteLength":2568,
			"byteOffset":233584,
			"target":34962
		},
		{
			"buffer":0,
			"byteLength":2568,
			"byteOffset":236152,
			"target":34962
		},
		{
			"buffer":0,
			"byteLength":1712,
			"byteOffset":238720,
			"target":34962
		},
		{
			"buffer":0,
			"byteLength":888,
			"byteOffset":240432,
			"target":34963
		}
	],
	"samplers":[
		{
			"magFilter":9729,
			"minFilter":9987
		}
	],
	"buffers":[
		{
			"byteLength":241320,
			"uri":"skrinjaodprta%2Bsword.bin"
		}
	]
}
