{
	"asset":{
		"generator":"Khronos glTF Blender I/O v4.2.60",
		"version":"2.0"
	},
	"scene":0,
	"scenes":[
		{
			"name":"Scene",
			"nodes":[
				0,
				1,
				2,
				5
			]
		}
	],
	"nodes":[
		{
			"mesh":0,
			"name":"Torus.001",
			"rotation":[
				0,
				0,
				0.2719881236553192,
				0.9623005986213684
			],
			"scale":[
				0.14383567869663239,
				0.13607057929039001,
				0.11376538872718811
			],
			"translation":[
				-0.7374058961868286,
				0.09729962050914764,
				1.4542338848114014
			]
		},
		{
			"mesh":1,
			"name":"Cube.002",
			"rotation":[
				0,
				0,
				0.8727740049362183,
				0.4881247282028198
			],
			"scale":[
				-0.18896090984344482,
				-0.18896090984344482,
				-0.11791165173053741
			],
			"translation":[
				-0.5272878408432007,
				0.22638927400112152,
				1.468713641166687
			]
		},
		{
			"mesh":2,
			"name":"Cube",
			"scale":[
				2.2637577056884766,
				1,
				1
			],
			"translation":[
				0,
				1.0079766511917114,
				0
			]
		},
		{
			"mesh":3,
			"name":"Torus.003",
			"rotation":[
				-0.7071068286895752,
				0,
				0,
				0.7071068286895752
			],
			"scale":[
				0.5360165238380432,
				0.3819165825843811,
				0.5318268537521362
			],
			"translation":[
				0,
				-0.29403555393218994,
				0.334269642829895
			]
		},
		{
			"children":[
				3
			],
			"mesh":4,
			"name":"Plane.001",
			"rotation":[
				0.7071068286895752,
				0,
				0,
				0.7071067690849304
			],
			"scale":[
				0.1185382530093193,
				0.3562834858894348,
				0.3562834858894348
			],
			"translation":[
				0,
				-0.003777414560317993,
				2.1231298446655273
			]
		},
		{
			"children":[
				4
			],
			"mesh":5,
			"name":"Cube.001",
			"rotation":[
				-0.8191519975662231,
				0,
				0,
				0.5735765099525452
			],
			"scale":[
				2.2637577056884766,
				1,
				1
			],
			"translation":[
				0,
				1.4983103275299072,
				-0.9999998211860657
			]
		}
	],
	"materials":[
		{
			"doubleSided":true,
			"name":"Material.001",
			"pbrMetallicRoughness":{
				"baseColorTexture":{
					"index":0
				},
				"roughnessFactor":0.6338582634925842
			}
		},
		{
			"doubleSided":true,
			"name":"Material",
			"pbrMetallicRoughness":{
				"baseColorTexture":{
					"index":1
				},
				"metallicFactor":0
			}
		}
	],
	"meshes":[
		{
			"name":"Torus.004",
			"primitives":[
				{
					"attributes":{
						"POSITION":0,
						"NORMAL":1,
						"TEXCOORD_0":2
					},
					"indices":3,
					"material":0
				}
			]
		},
		{
			"name":"Cube.007",
			"primitives":[
				{
					"attributes":{
						"POSITION":4,
						"NORMAL":5,
						"TEXCOORD_0":6
					},
					"indices":7,
					"material":0
				}
			]
		},
		{
			"name":"Cube",
			"primitives":[
				{
					"attributes":{
						"POSITION":8,
						"NORMAL":9,
						"TEXCOORD_0":10
					},
					"indices":11,
					"material":1
				}
			]
		},
		{
			"name":"Torus.003",
			"primitives":[
				{
					"attributes":{
						"POSITION":12,
						"NORMAL":13,
						"TEXCOORD_0":14
					},
					"indices":3,
					"material":0
				}
			]
		},
		{
			"name":"Plane.002",
			"primitives":[
				{
					"attributes":{
						"POSITION":15,
						"NORMAL":16,
						"TEXCOORD_0":17
					},
					"indices":18,
					"material":0
				}
			]
		},
		{
			"name":"Cube.001",
			"primitives":[
				{
					"attributes":{
						"POSITION":19,
						"NORMAL":20,
						"TEXCOORD_0":21
					},
					"indices":22,
					"material":1
				}
			]
		}
	],
	"textures":[
		{
			"sampler":0,
			"source":0
		},
		{
			"sampler":0,
			"source":1
		}
	],
	"images":[
		{
			"mimeType":"image/png",
			"name":"skrinja_kljucavnica",
			"uri":"skrinja_kljucavnica.png"
		},
		{
			"mimeType":"image/jpeg",
			"name":"skrinja",
			"uri":"skrinja.jpg"
		}
	],
	"accessors":[
		{
			"bufferView":0,
			"componentType":5126,
			"count":2112,
			"max":[
				0.8999999761581421,
				0.2078625112771988,
				0.8999999761581421
			],
			"min":[
				-0.8999999761581421,
				-0.2078625112771988,
				-0.8999999761581421
			],
			"type":"VEC3"
		},
		{
			"bufferView":1,
			"componentType":5126,
			"count":2112,
			"type":"VEC3"
		},
		{
			"bufferView":2,
			"componentType":5126,
			"count":2112,
			"type":"VEC2"
		},
		{
			"bufferView":3,
			"componentType":5123,
			"count":3168,
			"type":"SCALAR"
		},
		{
			"bufferView":4,
			"componentType":5126,
			"count":54,
			"max":[
				1,
				1,
				1
			],
			"min":[
				-1,
				-1,
				-1
			],
			"type":"VEC3"
		},
		{
			"bufferView":5,
			"componentType":5126,
			"count":54,
			"type":"VEC3"
		},
		{
			"bufferView":6,
			"componentType":5126,
			"count":54,
			"type":"VEC2"
		},
		{
			"bufferView":7,
			"componentType":5123,
			"count":144,
			"type":"SCALAR"
		},
		{
			"bufferView":8,
			"componentType":5126,
			"count":214,
			"max":[
				1,
				0.5939761996269226,
				1
			],
			"min":[
				-1,
				-1,
				-1
			],
			"type":"VEC3"
		},
		{
			"bufferView":9,
			"componentType":5126,
			"count":214,
			"type":"VEC3"
		},
		{
			"bufferView":10,
			"componentType":5126,
			"count":214,
			"type":"VEC2"
		},
		{
			"bufferView":11,
			"componentType":5123,
			"count":444,
			"type":"SCALAR"
		},
		{
			"bufferView":12,
			"componentType":5126,
			"count":2112,
			"max":[
				0.8999999761581421,
				0.2078625112771988,
				0.8999999761581421
			],
			"min":[
				-0.8999999761581421,
				-0.2078625112771988,
				-0.8999999761581421
			],
			"type":"VEC3"
		},
		{
			"bufferView":13,
			"componentType":5126,
			"count":2112,
			"type":"VEC3"
		},
		{
			"bufferView":14,
			"componentType":5126,
			"count":2112,
			"type":"VEC2"
		},
		{
			"bufferView":15,
			"componentType":5126,
			"count":130,
			"max":[
				1,
				-0.1681075394153595,
				1
			],
			"min":[
				-1,
				-0.5581075549125671,
				-1
			],
			"type":"VEC3"
		},
		{
			"bufferView":16,
			"componentType":5126,
			"count":130,
			"type":"VEC3"
		},
		{
			"bufferView":17,
			"componentType":5126,
			"count":130,
			"type":"VEC2"
		},
		{
			"bufferView":18,
			"componentType":5123,
			"count":276,
			"type":"SCALAR"
		},
		{
			"bufferView":19,
			"componentType":5126,
			"count":480,
			"max":[
				1,
				0.7619178295135498,
				1.9999992847442627
			],
			"min":[
				-1,
				0.012345224618911743,
				-5.960464477539062e-07
			],
			"type":"VEC3"
		},
		{
			"bufferView":20,
			"componentType":5126,
			"count":480,
			"type":"VEC3"
		},
		{
			"bufferView":21,
			"componentType":5126,
			"count":480,
			"type":"VEC2"
		},
		{
			"bufferView":22,
			"componentType":5123,
			"count":648,
			"type":"SCALAR"
		}
	],
	"bufferViews":[
		{
			"buffer":0,
			"byteLength":25344,
			"byteOffset":0,
			"target":34962
		},
		{
			"buffer":0,
			"byteLength":25344,
			"byteOffset":25344,
			"target":34962
		},
		{
			"buffer":0,
			"byteLength":16896,
			"byteOffset":50688,
			"target":34962
		},
		{
			"buffer":0,
			"byteLength":6336,
			"byteOffset":67584,
			"target":34963
		},
		{
			"buffer":0,
			"byteLength":648,
			"byteOffset":73920,
			"target":34962
		},
		{
			"buffer":0,
			"byteLength":648,
			"byteOffset":74568,
			"target":34962
		},
		{
			"buffer":0,
			"byteLength":432,
			"byteOffset":75216,
			"target":34962
		},
		{
			"buffer":0,
			"byteLength":288,
			"byteOffset":75648,
			"target":34963
		},
		{
			"buffer":0,
			"byteLength":2568,
			"byteOffset":75936,
			"target":34962
		},
		{
			"buffer":0,
			"byteLength":2568,
			"byteOffset":78504,
			"target":34962
		},
		{
			"buffer":0,
			"byteLength":1712,
			"byteOffset":81072,
			"target":34962
		},
		{
			"buffer":0,
			"byteLength":888,
			"byteOffset":82784,
			"target":34963
		},
		{
			"buffer":0,
			"byteLength":25344,
			"byteOffset":83672,
			"target":34962
		},
		{
			"buffer":0,
			"byteLength":25344,
			"byteOffset":109016,
			"target":34962
		},
		{
			"buffer":0,
			"byteLength":16896,
			"byteOffset":134360,
			"target":34962
		},
		{
			"buffer":0,
			"byteLength":1560,
			"byteOffset":151256,
			"target":34962
		},
		{
			"buffer":0,
			"byteLength":1560,
			"byteOffset":152816,
			"target":34962
		},
		{
			"buffer":0,
			"byteLength":1040,
			"byteOffset":154376,
			"target":34962
		},
		{
			"buffer":0,
			"byteLength":552,
			"byteOffset":155416,
			"target":34963
		},
		{
			"buffer":0,
			"byteLength":5760,
			"byteOffset":155968,
			"target":34962
		},
		{
			"buffer":0,
			"byteLength":5760,
			"byteOffset":161728,
			"target":34962
		},
		{
			"buffer":0,
			"byteLength":3840,
			"byteOffset":167488,
			"target":34962
		},
		{
			"buffer":0,
			"byteLength":1296,
			"byteOffset":171328,
			"target":34963
		}
	],
	"samplers":[
		{
			"magFilter":9729,
			"minFilter":9987
		}
	],
	"buffers":[
		{
			"byteLength":172624,
			"uri":"skrinjaoprta.bin"
		}
	]
}
