{
	"asset":{
		"generator":"Khronos glTF Blender I/O v4.2.60",
		"version":"2.0"
	},
	"scene":0,
	"scenes":[
		{
			"name":"Scene",
			"nodes":[
				0,
				1
			]
		}
	],
	"nodes":[
		{
			"mesh":0,
			"name":"Cube",
			"scale":[
				0.5992628931999207,
				2.705570936203003,
				0.5992628931999207
			],
			"translation":[
				0,
				2.8482165336608887,
				0
			]
		},
		{
			"mesh":1,
			"name":"Sphere",
			"scale":[
				0.7262724041938782,
				0.7262724041938782,
				0.7262724041938782
			],
			"translation":[
				0,
				4.5580902099609375,
				0
			]
		}
	],
	"materials":[
		{
			"doubleSided":true,
			"name":"Material.001",
			"pbrMetallicRoughness":{
				"baseColorTexture":{
					"index":0
				},
				"metallicFactor":0,
				"roughnessFactor":0.5
			}
		},
		{
			"doubleSided":true,
			"name":"Material.002",
			"pbrMetallicRoughness":{
				"baseColorTexture":{
					"index":1
				},
				"metallicFactor":0,
				"roughnessFactor":0.5
			}
		}
	],
	"meshes":[
		{
			"name":"Cube.002",
			"primitives":[
				{
					"attributes":{
						"POSITION":0,
						"NORMAL":1,
						"TEXCOORD_0":2
					},
					"indices":3,
					"material":0
				}
			]
		},
		{
			"name":"Sphere.001",
			"primitives":[
				{
					"attributes":{
						"POSITION":4,
						"NORMAL":5,
						"TEXCOORD_0":6
					},
					"indices":7,
					"material":1
				}
			]
		}
	],
	"textures":[
		{
			"sampler":0,
			"source":0
		},
		{
			"sampler":0,
			"source":1
		}
	],
	"images":[
		{
			"mimeType":"image/jpeg",
			"name":"dirt_aerial_02_diff_1k_jpg",
			"uri":"dirt_aerial_02_diff_1k_jpg.jpg"
		},
		{
			"mimeType":"image/jpeg",
			"name":"abstract-blurred-background-light-leaks",
			"uri":"abstract-blurred-background-light-leaks.jpg"
		}
	],
	"accessors":[
		{
			"bufferView":0,
			"componentType":5126,
			"count":104,
			"max":[
				1.2908068895339966,
				0.34692227840423584,
				1.2908068895339966
			],
			"min":[
				-1.2908068895339966,
				-1,
				-1.2908068895339966
			],
			"type":"VEC3"
		},
		{
			"bufferView":1,
			"componentType":5126,
			"count":104,
			"type":"VEC3"
		},
		{
			"bufferView":2,
			"componentType":5126,
			"count":104,
			"type":"VEC2"
		},
		{
			"bufferView":3,
			"componentType":5123,
			"count":204,
			"type":"SCALAR"
		},
		{
			"bufferView":4,
			"componentType":5126,
			"count":1984,
			"max":[
				1.2458195686340332,
				2.759434223175049,
				0.9857722520828247
			],
			"min":[
				-1.3735127449035645,
				-0.9903926849365234,
				-0.9903924465179443
			],
			"type":"VEC3"
		},
		{
			"bufferView":5,
			"componentType":5126,
			"count":1984,
			"type":"VEC3"
		},
		{
			"bufferView":6,
			"componentType":5126,
			"count":1984,
			"type":"VEC2"
		},
		{
			"bufferView":7,
			"componentType":5123,
			"count":2880,
			"type":"SCALAR"
		}
	],
	"bufferViews":[
		{
			"buffer":0,
			"byteLength":1248,
			"byteOffset":0,
			"target":34962
		},
		{
			"buffer":0,
			"byteLength":1248,
			"byteOffset":1248,
			"target":34962
		},
		{
			"buffer":0,
			"byteLength":832,
			"byteOffset":2496,
			"target":34962
		},
		{
			"buffer":0,
			"byteLength":408,
			"byteOffset":3328,
			"target":34963
		},
		{
			"buffer":0,
			"byteLength":23808,
			"byteOffset":3736,
			"target":34962
		},
		{
			"buffer":0,
			"byteLength":23808,
			"byteOffset":27544,
			"target":34962
		},
		{
			"buffer":0,
			"byteLength":15872,
			"byteOffset":51352,
			"target":34962
		},
		{
			"buffer":0,
			"byteLength":5760,
			"byteOffset":67224,
			"target":34963
		}
	],
	"samplers":[
		{
			"magFilter":9729,
			"minFilter":9987
		}
	],
	"buffers":[
		{
			"byteLength":72984,
			"uri":"torch.bin"
		}
	]
}
